<svg version="1.1" viewBox="0.0 0.0 960.0 720.0" fill="none" stroke="none" stroke-linecap="square" stroke-miterlimit="10" xmlns:xlink="http://www.w3.org/1999/xlink" xmlns="http://www.w3.org/2000/svg"><clipPath id="p.0"><path d="m0 0l960.0 0l0 720.0l-960.0 0l0 -720.0z" clip-rule="nonzero"/></clipPath><g clip-path="url(#p.0)"><path fill="#000000" fill-opacity="0.0" d="m0 0l960.0 0l0 720.0l-960.0 0z" fill-rule="evenodd"/><path fill="#ffffff" d="m-1.1496063 -1.1496063l960.0 0l0 720.0l-960.0 0z" fill-rule="evenodd"/><path fill="#000000" fill-opacity="0.0" d="m316.3622 389.27036l0 0c0 -66.27417 53.838623 -120.0 120.25195 -120.0l0 0c31.892822 0 62.47937 12.642792 85.030975 35.147186c22.551636 22.504364 35.22101 53.026825 35.22101 84.85281l0 0c0 66.27417 -53.838654 120.0 -120.25198 120.0l0 0c-66.41333 0 -120.25195 -53.72583 -120.25195 -120.0z" fill-rule="evenodd"/><path stroke="#000000" stroke-width="1.0" stroke-linejoin="round" stroke-linecap="butt" d="m316.3622 389.27036l0 0c0 -66.27417 53.838623 -120.0 120.25195 -120.0l0 0c31.892822 0 62.47937 12.642792 85.030975 35.147186c22.551636 22.504364 35.22101 53.026825 35.22101 84.85281l0 0c0 66.27417 -53.838654 120.0 -120.25198 120.0l0 0c-66.41333 0 -120.25195 -53.72583 -120.25195 -120.0z" fill-rule="evenodd"/><path fill="#000000" fill-opacity="0.0" d="m57.535435 203.82808l0 0c0 -21.882645 61.43922 -39.62204 137.22835 -39.62204l0 0c75.78914 0 137.22835 17.739395 137.22835 39.62204l0 0c0 21.88266 -61.43921 39.622055 -137.22835 39.622055l0 0c-75.78912 0 -137.22835 -17.739395 -137.22835 -39.622055z" fill-rule="evenodd"/><path stroke="#000000" stroke-width="1.0" stroke-linejoin="round" stroke-linecap="butt" d="m57.535435 203.82808l0 0c0 -21.882645 61.43922 -39.62204 137.22835 -39.62204l0 0c75.78914 0 137.22835 17.739395 137.22835 39.62204l0 0c0 21.88266 -61.43921 39.622055 -137.22835 39.622055l0 0c-75.78912 0 -137.22835 -17.739395 -137.22835 -39.622055z" fill-rule="evenodd"/><path fill="#000000" fill-opacity="0.0" d="m57.535435 566.62335l0 0c0 -21.88263 61.43922 -39.62201 137.22835 -39.62201l0 0c75.78914 0 137.22835 17.73938 137.22835 39.62201l0 0c0 21.88269 -61.43921 39.62207 -137.22835 39.62207l0 0c-75.78912 0 -137.22835 -17.73938 -137.22835 -39.62207z" fill-rule="evenodd"/><path stroke="#000000" stroke-width="1.0" stroke-linejoin="round" stroke-linecap="butt" d="m57.535435 566.62335l0 0c0 -21.88263 61.43922 -39.62201 137.22835 -39.62201l0 0c75.78914 0 137.22835 17.73938 137.22835 39.62201l0 0c0 21.88269 -61.43921 39.62207 -137.22835 39.62207l0 0c-75.78912 0 -137.22835 -17.73938 -137.22835 -39.62207z" fill-rule="evenodd"/><path fill="#000000" fill-opacity="0.0" d="m57.535435 203.82808l274.4567 362.80316" fill-rule="evenodd"/><path stroke="#000000" stroke-width="1.0" stroke-linejoin="round" stroke-linecap="butt" d="m57.535435 203.82808l274.4567 362.80316" fill-rule="evenodd"/><path fill="#000000" fill-opacity="0.0" d="m331.99213 203.82808l-274.4567 362.80316" fill-rule="evenodd"/><path stroke="#000000" stroke-width="1.0" stroke-linejoin="round" stroke-linecap="butt" d="m331.99213 203.82808l-274.4567 362.80316" fill-rule="evenodd"/><path fill="#000000" fill-opacity="0.0" d="m192.74803 640.76245l4.031494 -523.622" fill-rule="evenodd"/><path stroke="#000000" stroke-width="1.0" stroke-linejoin="round" stroke-linecap="butt" d="m192.74803 640.76245l3.9852905 -517.6222" fill-rule="evenodd"/><path fill="#000000" stroke="#000000" stroke-width="1.0" stroke-linecap="butt" d="m198.38501 123.15296l-1.616745 -4.550682l-1.686615 4.5252457z" fill-rule="evenodd"/><path fill="#000000" fill-opacity="0.0" d="m540.67456 203.82808l0 0c0 -21.882645 61.43921 -39.62204 137.22833 -39.62204l0 0c75.78912 0 137.22833 17.739395 137.22833 39.62204l0 0c0 21.88266 -61.43921 39.622055 -137.22833 39.622055l0 0c-75.78912 0 -137.22833 -17.739395 -137.22833 -39.622055z" fill-rule="evenodd"/><path stroke="#000000" stroke-width="1.0" stroke-linejoin="round" stroke-linecap="butt" d="m540.67456 203.82808l0 0c0 -21.882645 61.43921 -39.62204 137.22833 -39.62204l0 0c75.78912 0 137.22833 17.739395 137.22833 39.62204l0 0c0 21.88266 -61.43921 39.622055 -137.22833 39.622055l0 0c-75.78912 0 -137.22833 -17.739395 -137.22833 -39.622055z" fill-rule="evenodd"/><path fill="#000000" fill-opacity="0.0" d="m540.67456 566.62335l0 0c0 -21.88263 61.43921 -39.62201 137.22833 -39.62201l0 0c75.78912 0 137.22833 17.73938 137.22833 39.62201l0 0c0 21.88269 -61.43921 39.62207 -137.22833 39.62207l0 0c-75.78912 0 -137.22833 -17.73938 -137.22833 -39.62207z" fill-rule="evenodd"/><path stroke="#000000" stroke-width="1.0" stroke-linejoin="round" stroke-linecap="butt" d="m540.67456 566.62335l0 0c0 -21.88263 61.43921 -39.62201 137.22833 -39.62201l0 0c75.78912 0 137.22833 17.73938 137.22833 39.62201l0 0c0 21.88269 -61.43921 39.62207 -137.22833 39.62207l0 0c-75.78912 0 -137.22833 -17.73938 -137.22833 -39.62207z" fill-rule="evenodd"/><path fill="#000000" fill-opacity="0.0" d="m540.67456 203.82808l274.45667 362.80316" fill-rule="evenodd"/><path stroke="#000000" stroke-width="1.0" stroke-linejoin="round" stroke-linecap="butt" d="m540.67456 203.82808l274.45667 362.80316" fill-rule="evenodd"/><path fill="#000000" fill-opacity="0.0" d="m815.1312 203.82808l-274.45667 362.80316" fill-rule="evenodd"/><path stroke="#000000" stroke-width="1.0" stroke-linejoin="round" stroke-linecap="butt" d="m815.1312 203.82808l-274.45667 362.80316" fill-rule="evenodd"/><path fill="#000000" fill-opacity="0.0" d="m675.88715 640.76245l4.031494 -523.622" fill-rule="evenodd"/><path stroke="#000000" stroke-width="1.0" stroke-linejoin="round" stroke-linecap="butt" d="m675.88715 640.76245l3.9852905 -517.6222" fill-rule="evenodd"/><path fill="#000000" stroke="#000000" stroke-width="1.0" stroke-linecap="butt" d="m681.5241 123.15296l-1.6166992 -4.550682l-1.6866455 4.5252457z" fill-rule="evenodd"/><path fill="#000000" fill-opacity="0.0" d="m144.81102 53.972443l99.90552 0l0 51.716537l-99.90552 0z" fill-rule="evenodd"/><path fill="#000000" d="m176.45981 86.47869l0.328125 2.0625q-0.984375 0.21875 -1.765625 0.21875q-1.265625 0 -1.96875 -0.40625q-0.703125 -0.40625 -1.0 -1.0625q-0.28125 -0.65625 -0.28125 -2.765625l0 -7.953125l-1.71875 0l0 -1.828125l1.71875 0l0 -3.421875l2.328125 -1.40625l0 4.828125l2.359375 0l0 1.828125l-2.359375 0l0 8.078125q0 1.0 0.125 1.296875q0.125 0.28125 0.40625 0.453125q0.28125 0.171875 0.796875 0.171875q0.390625 0 1.03125 -0.09375zm2.296585 -14.296875l0 -2.6875l2.34375 0l0 2.6875l-2.34375 0zm0 16.390625l0 -13.828125l2.34375 0l0 13.828125l-2.34375 0zm5.90654 0l0 -13.828125l2.109375 0l0 1.9375q0.640625 -1.015625 1.71875 -1.625q1.09375 -0.625 2.46875 -0.625q1.53125 0 2.515625 0.640625q0.984375 0.640625 1.390625 1.78125q1.640625 -2.421875 4.265625 -2.421875q2.0625 0 3.15625 1.140625q1.109375 1.140625 1.109375 3.515625l0 9.484375l-2.328125 0l0 -8.703125q0 -1.40625 -0.234375 -2.015625q-0.21875 -0.625 -0.828125 -1.0q-0.59375 -0.390625 -1.390625 -0.390625q-1.46875 0 -2.4375 0.96875q-0.953125 0.96875 -0.953125 3.109375l0 8.03125l-2.34375 0l0 -8.984375q0 -1.5625 -0.578125 -2.34375q-0.5625 -0.78125 -1.875 -0.78125q-0.984375 0 -1.828125 0.53125q-0.828125 0.515625 -1.21875 1.515625q-0.375 1.0 -0.375 2.890625l0 7.171875l-2.34375 0zm31.673615 -4.453125l2.421875 0.296875q-0.578125 2.125 -2.125 3.296875q-1.546875 1.171875 -3.953125 1.171875q-3.03125 0 -4.8125 -1.859375q-1.78125 -1.875 -1.78125 -5.25q0 -3.484375 1.796875 -5.40625q1.796875 -1.9375 4.671875 -1.9375q2.765625 0 4.515625 1.890625q1.765625 1.890625 1.765625 5.3125q0 0.203125 -0.015625 0.625l-10.3125 0q0.140625 2.28125 1.296875 3.5q1.15625 1.203125 2.890625 1.203125q1.28125 0 2.1875 -0.671875q0.921875 -0.6875 1.453125 -2.171875zm-7.6875 -3.78125l7.71875 0q-0.15625 -1.75 -0.890625 -2.625q-1.125 -1.34375 -2.90625 -1.34375q-1.609375 0 -2.71875 1.078125q-1.09375 1.078125 -1.203125 2.890625z" fill-rule="nonzero"/><path fill="#000000" fill-opacity="0.0" d="m213.58792 389.28348l443.2756 0" fill-rule="evenodd"/><path stroke="#000000" stroke-width="1.0" stroke-linejoin="round" stroke-linecap="butt" d="m213.58792 389.28348l437.2756 0" fill-rule="evenodd"/><path fill="#000000" stroke="#000000" stroke-width="1.0" stroke-linecap="butt" d="m650.8635 390.9352l4.538086 -1.6517334l-4.538086 -1.6517334z" fill-rule="evenodd"/><path fill="#000000" fill-opacity="0.0" d="m696.92126 391.5761l110.236206 0" fill-rule="evenodd"/><path stroke="#000000" stroke-width="1.0" stroke-linejoin="round" stroke-linecap="butt" d="m696.92126 391.5761l104.236206 0" fill-rule="evenodd"/><path fill="#000000" stroke="#000000" stroke-width="1.0" stroke-linecap="butt" d="m801.1575 393.22784l4.538086 -1.6517334l-4.538086 -1.6517334z" fill-rule="evenodd"/><path fill="#000000" fill-opacity="0.0" d="m815.1312 359.36746l99.90552 0l0 51.716522l-99.90552 0z" fill-rule="evenodd"/><path fill="#000000" d="m838.8152 393.96744l-5.25 -13.828125l2.46875 0l2.96875 8.28125q0.484375 1.34375 0.890625 2.78125q0.296875 -1.09375 0.859375 -2.625l3.078125 -8.4375l2.40625 0l-5.234375 13.828125l-2.1875 0zm18.515625 -1.703125q-1.3125 1.109375 -2.515625 1.5625q-1.203125 0.453125 -2.578125 0.453125q-2.28125 0 -3.5 -1.109375q-1.21875 -1.109375 -1.21875 -2.84375q0 -1.015625 0.453125 -1.859375q0.46875 -0.84375 1.21875 -1.34375q0.75 -0.515625 1.6875 -0.765625q0.6875 -0.1875 2.078125 -0.359375q2.828125 -0.328125 4.171875 -0.796875q0.015625 -0.484375 0.015625 -0.625q0 -1.421875 -0.65625 -2.015625q-0.90625 -0.796875 -2.671875 -0.796875q-1.65625 0 -2.453125 0.59375q-0.78125 0.578125 -1.15625 2.046875l-2.296875 -0.3125q0.3125 -1.46875 1.03125 -2.375q0.71875 -0.90625 2.0625 -1.390625q1.359375 -0.5 3.140625 -0.5q1.78125 0 2.875 0.421875q1.109375 0.421875 1.625 1.046875q0.53125 0.625 0.734375 1.59375q0.125 0.59375 0.125 2.15625l0 3.125q0 3.265625 0.140625 4.140625q0.15625 0.859375 0.59375 1.65625l-2.4375 0q-0.375 -0.734375 -0.46875 -1.703125zm-0.203125 -5.234375q-1.265625 0.515625 -3.828125 0.890625q-1.4375 0.203125 -2.046875 0.46875q-0.59375 0.25 -0.921875 0.75q-0.3125 0.5 -0.3125 1.125q0 0.9375 0.703125 1.5625q0.703125 0.625 2.078125 0.625q1.34375 0 2.390625 -0.59375q1.0625 -0.59375 1.5625 -1.625q0.375 -0.796875 0.375 -2.34375l0 -0.859375zm5.949951 6.9375l0 -19.078125l2.34375 0l0 19.078125l-2.34375 0zm15.031555 0l0 -2.03125q-1.609375 2.34375 -4.375 2.34375q-1.234375 0 -2.296875 -0.46875q-1.0625 -0.46875 -1.578125 -1.171875q-0.5 -0.71875 -0.71875 -1.75q-0.140625 -0.6875 -0.140625 -2.1875l0 -8.5625l2.34375 0l0 7.671875q0 1.828125 0.140625 2.46875q0.21875 0.921875 0.9375 1.453125q0.71875 0.53125 1.765625 0.53125q1.0625 0 1.984375 -0.53125q0.921875 -0.546875 1.296875 -1.46875q0.390625 -0.9375 0.390625 -2.71875l0 -7.40625l2.34375 0l0 13.828125l-2.09375 0zm15.23114 -4.453125l2.421875 0.296875q-0.578125 2.125 -2.125 3.296875q-1.546875 1.171875 -3.953125 1.171875q-3.03125 0 -4.8125 -1.859375q-1.78125 -1.875 -1.78125 -5.25q0 -3.484375 1.796875 -5.40625q1.796875 -1.9375 4.671875 -1.9375q2.765625 0 4.515625 1.890625q1.765625 1.890625 1.765625 5.3125q0 0.203125 -0.015625 0.625l-10.3125 0q0.140625 2.28125 1.296875 3.5q1.15625 1.203125 2.890625 1.203125q1.28125 0 2.1875 -0.671875q0.921875 -0.6875 1.453125 -2.171875zm-7.6875 -3.78125l7.71875 0q-0.15625 -1.75 -0.890625 -2.625q-1.125 -1.34375 -2.90625 -1.34375q-1.609375 0 -2.71875 1.078125q-1.09375 1.078125 -1.203125 2.890625z" fill-rule="nonzero"/><path fill="#000000" fill-opacity="0.0" d="m627.95013 53.972443l99.90552 0l0 51.716537l-99.90552 0z" fill-rule="evenodd"/><path fill="#000000" d="m659.59894 86.47869l0.328125 2.0625q-0.984375 0.21875 -1.765625 0.21875q-1.265625 0 -1.96875 -0.40625q-0.703125 -0.40625 -1.0 -1.0625q-0.28125 -0.65625 -0.28125 -2.765625l0 -7.953125l-1.71875 0l0 -1.828125l1.71875 0l0 -3.421875l2.328125 -1.40625l0 4.828125l2.359375 0l0 1.828125l-2.359375 0l0 8.078125q0 1.0 0.125 1.296875q0.125 0.28125 0.40625 0.453125q0.28125 0.171875 0.796875 0.171875q0.390625 0 1.03125 -0.09375zm2.2965698 -14.296875l0 -2.6875l2.34375 0l0 2.6875l-2.34375 0zm0 16.390625l0 -13.828125l2.34375 0l0 13.828125l-2.34375 0zm5.906555 0l0 -13.828125l2.109375 0l0 1.9375q0.640625 -1.015625 1.71875 -1.625q1.09375 -0.625 2.46875 -0.625q1.53125 0 2.515625 0.640625q0.984375 0.640625 1.390625 1.78125q1.640625 -2.421875 4.265625 -2.421875q2.0625 0 3.15625 1.140625q1.109375 1.140625 1.109375 3.515625l0 9.484375l-2.328125 0l0 -8.703125q0 -1.40625 -0.234375 -2.015625q-0.21875 -0.625 -0.828125 -1.0q-0.59375 -0.390625 -1.390625 -0.390625q-1.46875 0 -2.4375 0.96875q-0.953125 0.96875 -0.953125 3.109375l0 8.03125l-2.34375 0l0 -8.984375q0 -1.5625 -0.578125 -2.34375q-0.5625 -0.78125 -1.875 -0.78125q-0.984375 0 -1.828125 0.53125q-0.828125 0.515625 -1.21875 1.515625q-0.375 1.0 -0.375 2.890625l0 7.171875l-2.34375 0zm31.673584 -4.453125l2.421875 0.296875q-0.578125 2.125 -2.125 3.296875q-1.546875 1.171875 -3.953125 1.171875q-3.03125 0 -4.8125 -1.859375q-1.78125 -1.875 -1.78125 -5.25q0 -3.484375 1.796875 -5.40625q1.796875 -1.9375 4.671875 -1.9375q2.765625 0 4.515625 1.890625q1.765625 1.890625 1.765625 5.3125q0 0.203125 -0.015625 0.625l-10.3125 0q0.140625 2.28125 1.296875 3.5q1.15625 1.203125 2.890625 1.203125q1.28125 0 2.1875 -0.671875q0.921875 -0.6875 1.453125 -2.171875zm-7.6875 -3.78125l7.71875 0q-0.15625 -1.75 -0.890625 -2.625q-1.125 -1.34375 -2.90625 -1.34375q-1.609375 0 -2.71875 1.078125q-1.09375 1.078125 -1.203125 2.890625z" fill-rule="nonzero"/><path fill="#000000" fill-opacity="0.0" d="m170.51476 345.00388l96.34645 -131.55905l41.700775 30.551178l-96.34645 131.55905z" fill-rule="evenodd"/><path fill="#000000" d="m217.44644 336.59735q0.11943054 1.7145386 -0.22590637 2.953003q-0.3453369 1.2384644 -1.1577454 2.3478088q-1.3478699 1.8404541 -2.96286 2.1680908q-1.6150055 0.32763672 -3.0140839 -0.6973572q-0.8192749 -0.6002197 -1.2321777 -1.464447q-0.40368652 -0.87683105 -0.36387634 -1.7774353q0.027175903 -0.90982056 0.37942505 -1.8139343q0.2549591 -0.6654663 0.93795776 -1.888977q1.4062958 -2.4756165 1.822113 -3.8367615q-0.3815155 -0.29885864 -0.49494934 -0.381958q-1.1469879 -0.84033203 -2.0137024 -0.6617737q-1.1782684 0.26019287 -2.2214813 1.6846619q-0.97857666 1.3362427 -0.9704437 2.3300476q0.004760742 0.97198486 0.9680023 2.1425476l-1.6091919 1.668396q-1.0001526 -1.1201477 -1.3065338 -2.2355957q-0.30638123 -1.1154785 0.096832275 -2.4858398q0.3998413 -1.3922424 1.4522705 -2.8293152q1.0524445 -1.4371033 2.0390015 -2.0701904q0.9957886 -0.6456909 1.8046112 -0.6923218q0.8180542 -0.05923462 1.7195435 0.34939575q0.55281067 0.25006104 1.8132477 1.1734924l2.5208588 1.8468628q2.6343079 1.9299622 3.423233 2.3336182q0.785553 0.38183594 1.6868744 0.4998169l-1.4401855 1.9665222q-0.81396484 -0.13146973 -1.6508331 -0.62835693zm-4.342453 -2.929596q-0.33184814 1.3258362 -1.5433807 3.6148376q-0.68548584 1.2797852 -0.83125305 1.9284058q-0.14915466 0.62677 0.060317993 1.1870117q0.21870422 0.5476074 0.7228699 0.9169922q0.7562561 0.55404663 1.6758728 0.35614014q0.91960144 -0.19787598 1.7320251 -1.3072205q0.7939453 -1.0841064 0.93351746 -2.2796326q0.14880371 -1.2080994 -0.38764954 -2.2209473q-0.42126465 -0.77349854 -1.6690826 -1.6877136l-0.6932373 -0.50787354zm10.391754 -11.016296l1.5965881 -1.6776428q1.7068939 1.7153931 1.8676605 3.7701416q0.17001343 2.0421448 -1.1686249 3.8700256q-1.6802063 2.294281 -4.183029 2.5913086q-2.5154266 0.28778076 -5.3135834 -1.7622375q-1.802414 -1.3204956 -2.7171783 -2.901062q-0.9181366 -1.6023865 -0.7032623 -3.323822q0.21485901 -1.7214355 1.2673035 -3.1585083q1.3293915 -1.8152771 3.0896149 -2.28833q1.769455 -0.48562622 3.698471 0.42401123l-1.0579681 2.0528564q-1.3156586 -0.5571289 -2.3721466 -0.3045349q-1.0472565 0.23995972 -1.7396393 1.1853943q-1.0524445 1.4371033 -0.68696594 3.0801086q0.37471008 1.6304016 2.5930786 3.2556152q2.2435608 1.6437073 3.8922882 1.5344849q1.6487122 -0.10922241 2.6642303 -1.4959106q0.82164 -1.1219177 0.68569946 -2.3643188q-0.14855957 -1.251648 -1.4125366 -2.4875793zm7.8748474 -10.75296l1.5965881 -1.6776123q1.7068939 1.7153931 1.8676605 3.7701416q0.17001343 2.0421448 -1.1686249 3.869995q-1.6802063 2.2943115 -4.183029 2.591339q-2.5154266 0.28778076 -5.3135834 -1.7622375q-1.802414 -1.3204956 -2.7171783 -2.901062q-0.9181366 -1.6023865 -0.7032623 -3.323822q0.21485901 -1.7214355 1.2673035 -3.1585083q1.3293915 -1.8152771 3.0896149 -2.28833q1.769455 -0.48565674 3.698471 0.4239807l-1.0579681 2.052887q-1.3156586 -0.5571289 -2.3721466 -0.30456543q-1.0472565 0.23999023 -1.7396393 1.1854248q-1.0524445 1.4371033 -0.68696594 3.0801086q0.37471008 1.6303711 2.5930786 3.2556152q2.2435608 1.6437073 3.8922882 1.5344849q1.6487122 -0.10925293 2.6642303 -1.4959106q0.82164 -1.1219482 0.68569946 -2.3643494q-0.14855957 -1.2516174 -1.4125366 -2.4875793zm0.5437317 -3.8629456q-3.1006622 -2.271637 -3.332428 -5.075714q-0.1953888 -2.3512878 1.3186493 -4.4186707q1.6894379 -2.3068848 4.2636414 -2.648468q2.570816 -0.36343384 5.230316 1.5849915q2.1553497 1.579071 2.9197388 3.1269531q0.76438904 1.5478516 0.54029846 3.2818909q-0.22410583 1.7340393 -1.2949982 3.19635q-1.7079163 2.3321228 -4.2695007 2.6829224q-2.552353 0.3381958 -5.375717 -1.7302551zm1.4217072 -1.9413452q2.142746 1.5698242 3.8972626 1.4219055q1.7419281 -0.15716553 2.7759094 -1.5690613q1.0339813 -1.4118652 0.6457825 -3.1296082q-0.3882141 -1.7177734 -2.5813599 -3.324524q-2.0671082 -1.5144348 -3.8308716 -1.3538818q-1.7545319 0.1479187 -2.7792816 1.5471802q-1.0339661 1.4118958 -0.6457672 3.1296387q0.3755951 1.7085266 2.5183258 3.2783508zm18.770905 -13.942474l-1.6385651 -1.20047q0.9397583 2.6835632 -0.69429016 4.9148254q-0.72932434 0.9958801 -1.7352295 1.5760498q-1.0058899 0.5802002 -1.8777466 0.58065796q-0.8752136 -0.021392822 -1.8363495 -0.45437622q-0.63768005 -0.29284668 -1.8476868 -1.1793518l-6.9071655 -5.060364l1.3847809 -1.8908997l6.1887207 4.534027q1.4747009 1.0804138 2.0745697 1.3455505q0.87290955 0.36834717 1.72612 0.10241699q0.85321045 -0.26589966 1.471756 -1.1105042q0.6277771 -0.85720825 0.74391174 -1.914917q0.103530884 -1.0669556 -0.41854858 -1.9143372q-0.5254669 -0.86920166 -1.9623566 -1.9219055l-5.9744415 -4.3770447l1.3847809 -1.8908997l11.154816 8.172333l-1.2370758 1.689209zm3.4047089 -4.649048l-11.154816 -8.172363l1.2463074 -1.7018127l1.58815 1.1635437q-0.9355011 -2.5836182 0.76316833 -4.9031067q0.7385559 -1.0084839 1.7226257 -1.5852966q0.9840698 -0.57681274 1.8811188 -0.5588074q0.893692 -0.0038146973 1.8203735 0.42330933q0.60324097 0.2869873 1.914093 1.247345l6.8567505 5.0234375l-1.3847961 1.8908997l-6.781128 -4.9680176q-1.1595917 -0.84957886 -1.8929596 -1.038208q-0.7367401 -0.21047974 -1.4924927 0.10748291q-0.746521 0.30532837 -1.3004456 1.0617065q-0.8770294 1.1975708 -0.7544098 2.64328q0.12263489 1.4457092 2.2653656 3.0155334l6.0878754 4.460144l-1.3847809 1.8909302zm10.098312 -17.332733l1.857666 0.9541931q-0.40515137 0.9234619 -0.86676025 1.553772q-0.74780273 1.0210876 -1.4909363 1.3482666q-0.74316406 0.32717896 -1.447937 0.17886353q-0.69555664 -0.1609497 -2.3971558 -1.4075623l-6.4155884 -4.7002563l-1.0155029 1.3866577l-1.4747009 -1.0804138l1.0155029 -1.3866577l-2.7603455 -2.0223083l0.24118042 -2.709381l3.8947296 2.8533936l1.3940277 -1.9035034l1.4747009 1.0804138l-1.3940125 1.9035034l6.5164185 4.7741394q0.80667114 0.5909729 1.1200256 0.6655884q0.3007202 0.06536865 0.6055298 -0.05996704q0.3048401 -0.1253357 0.6094971 -0.5413208q0.23080444 -0.31515503 0.5336609 -0.88742065zm11.374634 -14.870682q0.1194458 1.7145538 -0.22589111 2.9529877q-0.3453369 1.2384644 -1.1577454 2.3478088q-1.3478699 1.8404541 -2.96286 2.1680908q-1.6150208 0.32763672 -3.0140991 -0.6973572q-0.8192749 -0.6002197 -1.2321777 -1.464447q-0.403656 -0.87683105 -0.36386108 -1.7774353q0.027191162 -0.90982056 0.37942505 -1.8139038q0.25494385 -0.6654968 0.93795776 -1.8890076q1.4062805 -2.4756012 1.8220825 -3.8367462q-0.38150024 -0.2988739 -0.49493408 -0.38197327q-1.1469727 -0.84033203 -2.0137024 -0.6617737q-1.1782532 0.26019287 -2.221466 1.6846771q-0.97857666 1.3362427 -0.970459 2.3300476q0.004760742 0.9719696 0.9680176 2.1425323l-1.6091919 1.668396q-1.0001526 -1.1201477 -1.3065491 -2.2355957q-0.30636597 -1.1154785 0.096832275 -2.4858398q0.3998413 -1.3922272 1.4522705 -2.8293152q1.0524597 -1.437088 2.0390015 -2.0701904q0.9957886 -0.6456909 1.8046265 -0.6923218q0.8180542 -0.05923462 1.7195435 0.349411q0.5527954 0.25006104 1.8132324 1.1734772l2.520874 1.8468628q2.6343079 1.9299622 3.4232178 2.3336334q0.785553 0.38182068 1.6868896 0.49980164l-1.4401855 1.9665375q-0.81399536 -0.13146973 -1.6508484 -0.62835693zm-4.3424377 -2.929596q-0.33184814 1.3258057 -1.543396 3.6148224q-0.68548584 1.2798157 -0.8312683 1.9284058q-0.1491394 0.62680054 0.060333252 1.1870117q0.21871948 0.5476074 0.7228699 0.9169922q0.7562561 0.55404663 1.6758728 0.35614014q0.9196167 -0.19787598 1.7320251 -1.3072205q0.7939453 -1.0841064 0.9335327 -2.2796326q0.14880371 -1.2080994 -0.3876648 -2.2209473q-0.42126465 -0.77349854 -1.6690674 -1.6876984l-0.6932373 -0.50787354z" fill-rule="nonzero"/><path fill="#000000" fill-opacity="0.0" d="m649.82623 344.34134l97.543335 -130.64569l41.417297 30.960632l-97.543335 130.64566z" fill-rule="evenodd"/><path fill="#000000" d="m696.819 336.388q0.10333252 1.7159119 -0.25354004 2.9512634q-0.35687256 1.2353821 -1.1795044 2.3371582q-1.3648071 1.8279419 -2.982483 2.1403198q-1.6176758 0.3123474 -3.006836 -0.7260742q-0.81347656 -0.60809326 -1.2181396 -1.4763489q-0.39538574 -0.88079834 -0.34716797 -1.7811279q0.035705566 -0.9096985 0.3963623 -1.8105774q0.2611084 -0.6631775 0.95544434 -1.8803711q1.4291382 -2.4626465 1.857605 -3.8200378q-0.37860107 -0.30252075 -0.49121094 -0.38671875q-1.138855 -0.85131836 -2.007019 -0.68096924q-1.180481 0.24905396 -2.2367554 1.6638489q-0.99090576 1.3271484 -0.9920654 2.321167q-0.0043945312 0.97216797 0.9476929 2.1520386l-1.6244507 1.6533813q-0.9894409 -1.1297913 -1.2852783 -2.2483215q-0.29589844 -1.1185608 0.12005615 -2.4852905q0.4128418 -1.3886414 1.4785156 -2.8159485q1.0656128 -1.4273071 2.0579224 -2.0511475q1.0015869 -0.636322 1.810669 -0.67529297q0.8184204 -0.051483154 1.7158203 0.3657837q0.550354 0.25534058 1.8018799 1.1908569l2.5029297 1.8710327q2.6156006 1.9552307 3.4005737 2.366455q0.7817993 0.38931274 1.6818237 0.51586914l-1.458313 1.9531555q-0.81256104 -0.13922119 -1.6445312 -0.644104zm-4.314026 -2.971222q-0.34417725 1.3228455 -1.5769043 3.600708q-0.6972656 1.273468 -0.8491211 1.9208069q-0.15496826 0.62545776 0.049194336 1.1877441q0.21350098 0.54977417 0.7141113 0.9239807q0.7509155 0.5613098 1.6721191 0.37210083q0.92126465 -0.18920898 1.7438965 -1.2909851q0.80389404 -1.0767517 0.9546509 -2.2710876q0.16009521 -1.2068787 -0.36676025 -2.2249756q-0.4138794 -0.7775879 -1.652832 -1.7037659l-0.6883545 -0.51452637zm10.492615 -10.919312l1.6119385 -1.6627197q1.6903687 1.7318115 1.8318481 3.788391q0.1508789 2.0440674 -1.2045898 3.859497q-1.701294 2.2786865 -4.20636 2.552002q-2.517517 0.26394653 -5.2958374 -1.8128967q-1.7896118 -1.3377991 -2.689331 -2.927246q-0.90289307 -1.6113281 -0.67193604 -3.3309937q0.23095703 -1.719635 1.2965698 -3.1469421q1.3461304 -1.8029175 3.1103516 -2.2593384q1.7736206 -0.4689331 3.6936646 0.45913696l-1.0769653 2.0431213q-1.3101196 -0.56967163 -2.3687744 -0.3270874q-1.0492554 0.23007202 -1.7503052 1.1690979q-1.0656738 1.4273071 -0.71569824 3.0740051q0.359375 1.6341858 2.5619507 3.2807007q2.2276611 1.6652222 3.8770142 1.5716248q1.649353 -0.09359741 2.6776123 -1.4708252q0.8319702 -1.1143188 0.70770264 -2.3581848q-0.13677979 -1.2532349 -1.388855 -2.5013428zm7.973755 -10.679779l1.6119385 -1.6627197q1.6904297 1.7318115 1.8319092 3.788391q0.15081787 2.0440674 -1.2045898 3.859497q-1.701355 2.2786865 -4.20636 2.552002q-2.5175781 0.26394653 -5.2958374 -1.8128967q-1.7896118 -1.3377991 -2.689392 -2.927246q-0.90289307 -1.6113281 -0.67193604 -3.3309937q0.23095703 -1.719635 1.2966309 -3.1469421q1.3460693 -1.8029175 3.1103516 -2.2593384q1.7735596 -0.4689331 3.6936035 0.45913696l-1.0769653 2.0431213q-1.3101196 -0.56967163 -2.3687134 -0.3270874q-1.0492554 0.23007202 -1.7503662 1.1690979q-1.0656738 1.4273071 -0.7156372 3.0740051q0.35931396 1.6341858 2.5619507 3.2807007q2.2276 1.6652222 3.8770142 1.5716248q1.649353 -0.09359741 2.6776123 -1.4708252q0.8319702 -1.1143188 0.70770264 -2.3581848q-0.13677979 -1.2532349 -1.388916 -2.5013428zm0.579834 -3.858368q-3.0786743 -2.3013916 -3.2841187 -5.108032q-0.17327881 -2.353485 1.3598022 -4.4067993q1.7106323 -2.2912292 4.2874146 -2.608429q2.5736694 -0.3390808 5.2142944 1.6348572q2.1400146 1.599762 2.8897095 3.1550903q0.74975586 1.5553589 0.50946045 3.287506q-0.24029541 1.7321777 -1.324707 3.1845093q-1.7293701 2.3162537 -4.29364 2.6428223q-2.5549316 0.31402588 -5.3582153 -1.7815247zm1.4395752 -1.9281311q2.1275024 1.5903931 3.8829956 1.4590759q1.743042 -0.14065552 2.789978 -1.5429077q1.0469971 -1.4022827 0.6749878 -3.1239624q-0.3720703 -1.7217102 -2.5496216 -3.3495178q-2.0524292 -1.5342407 -3.8172607 -1.3904114q-1.7555542 0.13131714 -2.7931519 1.5210571q-1.0469971 1.4022827 -0.6749878 3.1239624q0.35949707 1.7123413 2.4870605 3.3027039zm18.897156 -13.766388l-1.6268921 -1.2161865q0.9143677 2.692871 -0.7402344 4.9089355q-0.73846436 0.9891052 -1.7495728 1.559845q-1.0111084 0.5707092 -1.8827515 0.5628967q-0.8748169 -0.029693604 -1.831665 -0.4718628q-0.6347656 -0.2989502 -1.8361816 -1.1970215l-6.8581543 -5.126648l1.4022217 -1.8780518l6.1447754 4.5934143q1.4642334 1.0945435 2.0614624 1.3654175q0.8692627 0.37667847 1.7247314 0.11883545q0.8555298 -0.25787354 1.4818115 -1.0967102q0.63568115 -0.8513794 0.76171875 -1.9081726q0.11352539 -1.0661011 -0.4005127 -1.9185486q-0.5172119 -0.8743286 -1.9439087 -1.9408264l-5.932007 -4.4343567l1.4021606 -1.8780212l11.075623 8.279327l-1.2526245 1.6777344zm3.4475098 -4.6174316l-11.075623 -8.279358l1.2619629 -1.6902161l1.5768433 1.1787415q-0.9110718 -2.5928345 0.80895996 -4.896576q0.74786377 -1.0016174 1.7371216 -1.5691528q0.9891968 -0.5675659 1.8858643 -0.54104614q0.8935547 0.004638672 1.81604 0.4406128q0.60040283 0.29275513 1.9019165 1.2657166l6.8080444 5.089203l-1.4021606 1.8780518l-6.732971 -5.033081q-1.1513672 -0.86068726 -1.8828125 -1.0563049q-0.73461914 -0.21749878 -1.4931641 0.093322754q-0.74920654 0.29830933 -1.3100586 1.0494995q-0.8880615 1.1894226 -0.7789917 2.6365356q0.10900879 1.4470825 2.2365723 3.037445l6.0446167 4.5185547l-1.4021606 1.8780518zm10.258423 -17.23941l1.8482666 0.97195435q-0.41375732 0.9197693 -0.8811035 1.5457764q-0.75720215 1.0141296 -1.5032349 1.3343201q-0.7460327 0.3201599 -1.4492798 0.16513062q-0.6939087 -0.1675415 -2.3834229 -1.4305115l-6.369995 -4.76178l-1.0283203 1.3772278l-1.4642334 -1.094574l1.0283203 -1.3772278l-2.7407837 -2.048767l0.26654053 -2.707489l3.8670654 2.890747l1.411499 -1.890564l1.4642944 1.094574l-1.41156 1.890564l6.470154 4.8366394q0.80096436 0.59872437 1.1135254 0.67630005q0.30004883 0.068237305 0.60595703 -0.054229736q0.30596924 -0.12243652 0.6144409 -0.535614q0.23370361 -0.3130188 0.5418701 -0.8824768zm8.7717285 -8.24881l-1.2993774 1.7403259l-15.28064 -11.422699l1.4022217 -1.8780518l5.4439697 4.069519q-0.6012573 -2.3026886 0.7728882 -4.143173q0.7665405 -1.0266571 1.8526001 -1.6194q1.095398 -0.6052551 2.2856445 -0.6324005q1.1870728 -0.04901123 2.4938965 0.4206543q1.3035889 0.44778442 2.4924927 1.3365326q2.8533936 2.1329803 3.348938 4.7078247q0.5048828 2.562317 -0.97210693 4.540497q-1.458252 1.9531555 -3.9296875 1.8419495l1.3891602 1.0384216zm-5.6378784 -4.1754456q1.9898682 1.4874878 3.2803955 1.6133118q2.1154175 0.19628906 3.246521 -1.3186646q0.91607666 -1.2269897 0.5253906 -2.923645q-0.40325928 -1.7060089 -2.5182495 -3.287033q-2.165039 -1.618454 -3.8363037 -1.5216827q-1.6837158 0.0874176 -2.590454 1.3018799q-0.9254761 1.2395172 -0.534729 2.9361572q0.4000244 1.6841431 2.4274292 3.1996765z" fill-rule="nonzero"/><path fill="#000000" fill-opacity="0.0" d="m436.61417 269.27036l-11.181091 0" fill-rule="evenodd"/><path stroke="#000000" stroke-width="3.0" stroke-linejoin="round" stroke-linecap="butt" d="m436.61417 269.27036l-11.181091 0" fill-rule="evenodd"/><path fill="#000000" stroke="#000000" stroke-width="3.0" stroke-linecap="butt" d="m425.43307 274.22552l13.614288 -4.9551697l-13.614288 -4.9552z" fill-rule="evenodd"/><path fill="#000000" fill-opacity="0.0" d="m445.4357 509.27036l-18.204742 0.56692505" fill-rule="evenodd"/><path stroke="#000000" stroke-width="3.0" stroke-linejoin="round" stroke-linecap="butt" d="m445.4357 509.27036l-0.21347046 0.0066223145" fill-rule="evenodd"/><path fill="#000000" stroke="#000000" stroke-width="3.0" stroke-linecap="butt" d="m445.06802 504.3242l-13.453461 5.3765564l13.761932 4.5290527z" fill-rule="evenodd"/><path fill="#000000" fill-opacity="0.0" d="m341.59317 167.50656l189.48032 0l0 84.031494l-189.48032 0z" fill-rule="evenodd"/><path fill="#000000" d="m393.58725 202.10657l-2.171875 0l0 -19.078125l2.34375 0l0 6.796875q1.484375 -1.859375 3.78125 -1.859375q1.28125 0 2.40625 0.515625q1.140625 0.515625 1.875 1.453125q0.75 0.921875 1.15625 2.25q0.421875 1.3125 0.421875 2.796875q0 3.5625 -1.765625 5.5q-1.75 1.9375 -4.21875 1.9375q-2.4375 0 -3.828125 -2.046875l0 1.734375zm-0.03125 -7.015625q0 2.484375 0.671875 3.59375q1.109375 1.8125 3.0 1.8125q1.53125 0 2.65625 -1.328125q1.125 -1.34375 1.125 -3.984375q0 -2.703125 -1.078125 -3.984375q-1.078125 -1.296875 -2.59375 -1.296875q-1.546875 0 -2.671875 1.328125q-1.109375 1.328125 -1.109375 3.859375zm12.699921 -9.375l0 -2.6875l2.34375 0l0 2.6875l-2.34375 0zm0 16.390625l0 -13.828125l2.34375 0l0 13.828125l-2.34375 0zm9.750305 0l-5.25 -13.828125l2.46875 0l2.96875 8.28125q0.484375 1.34375 0.890625 2.78125q0.296875 -1.09375 0.859375 -2.625l3.078125 -8.4375l2.40625 0l-5.234375 13.828125l-2.1875 0zm18.953125 -4.453125l2.421875 0.296875q-0.578125 2.125 -2.125 3.296875q-1.546875 1.171875 -3.953125 1.171875q-3.03125 0 -4.8125 -1.859375q-1.78125 -1.875 -1.78125 -5.25q0 -3.484375 1.796875 -5.40625q1.796875 -1.9375 4.671875 -1.9375q2.765625 0 4.515625 1.890625q1.765625 1.890625 1.765625 5.3125q0 0.203125 -0.015625 0.625l-10.3125 0q0.140625 2.28125 1.296875 3.5q1.15625 1.203125 2.890625 1.203125q1.28125 0 2.1875 -0.671875q0.921875 -0.6875 1.453125 -2.171875zm-7.6875 -3.78125l7.71875 0q-0.15625 -1.75 -0.890625 -2.625q-1.125 -1.34375 -2.90625 -1.34375q-1.609375 0 -2.71875 1.078125q-1.09375 1.078125 -1.203125 2.890625zm22.07492 3.171875l2.296875 0.296875q-0.375 2.390625 -1.9375 3.734375q-1.546875 1.34375 -3.8125 1.34375q-2.84375 0 -4.5625 -1.84375q-1.71875 -1.859375 -1.71875 -5.328125q0 -2.234375 0.734375 -3.90625q0.75 -1.6875 2.265625 -2.53125q1.515625 -0.84375 3.296875 -0.84375q2.25 0 3.671875 1.140625q1.4375 1.140625 1.84375 3.234375l-2.28125 0.359375q-0.328125 -1.390625 -1.15625 -2.09375q-0.8125 -0.703125 -1.984375 -0.703125q-1.78125 0 -2.890625 1.265625q-1.09375 1.265625 -1.09375 4.015625q0 2.78125 1.0625 4.046875q1.0625 1.265625 2.78125 1.265625q1.390625 0 2.3125 -0.84375q0.921875 -0.859375 1.171875 -2.609375zm9.421875 2.96875l0.328125 2.0625q-0.984375 0.21875 -1.765625 0.21875q-1.265625 0 -1.96875 -0.40625q-0.703125 -0.40625 -1.0 -1.0625q-0.28125 -0.65625 -0.28125 -2.765625l0 -7.953125l-1.71875 0l0 -1.828125l1.71875 0l0 -3.421875l2.328125 -1.40625l0 4.828125l2.359375 0l0 1.828125l-2.359375 0l0 8.078125q0 1.0 0.125 1.296875q0.125 0.28125 0.40625 0.453125q0.28125 0.171875 0.796875 0.171875q0.390625 0 1.03125 -0.09375zm1.4216003 -4.8125q0 -3.84375 2.125 -5.6875q1.78125 -1.546875 4.34375 -1.546875q2.859375 0 4.65625 1.875q1.8125 1.859375 1.8125 5.15625q0 2.671875 -0.796875 4.203125q-0.796875 1.53125 -2.328125 2.375q-1.53125 0.84375 -3.34375 0.84375q-2.890625 0 -4.6875 -1.859375q-1.78125 -1.859375 -1.78125 -5.359375zm2.40625 0q0 2.65625 1.15625 3.984375q1.15625 1.3125 2.90625 1.3125q1.75 0 2.90625 -1.328125q1.15625 -1.328125 1.15625 -4.046875q0 -2.5625 -1.171875 -3.890625q-1.15625 -1.328125 -2.890625 -1.328125q-1.75 0 -2.90625 1.328125q-1.15625 1.3125 -1.15625 3.96875zm13.262421 6.90625l0 -13.828125l2.109375 0l0 2.09375q0.796875 -1.46875 1.484375 -1.9375q0.6875 -0.46875 1.5 -0.46875q1.1875 0 2.40625 0.765625l-0.796875 2.171875q-0.859375 -0.515625 -1.71875 -0.515625q-0.765625 0 -1.390625 0.46875q-0.609375 0.453125 -0.859375 1.28125q-0.390625 1.25 -0.390625 2.734375l0 7.234375l-2.34375 0z" fill-rule="nonzero"/><path fill="#000000" d="m378.01245 232.01282l0.328125 2.0625q-0.984375 0.21875 -1.765625 0.21875q-1.265625 0 -1.96875 -0.40625q-0.703125 -0.40625 -1.0 -1.0625q-0.28125 -0.65625 -0.28125 -2.765625l0 -7.953125l-1.71875 0l0 -1.828125l1.71875 0l0 -3.421875l2.328125 -1.40625l0 4.828125l2.359375 0l0 1.828125l-2.359375 0l0 8.078125q0 1.0 0.125 1.296875q0.125 0.28125 0.40625 0.453125q0.28125 0.171875 0.796875 0.171875q0.390625 0 1.03125 -0.09375zm2.2653503 2.09375l0 -13.828125l2.109375 0l0 2.09375q0.796875 -1.46875 1.484375 -1.9375q0.6875 -0.46875 1.5 -0.46875q1.1875 0 2.40625 0.765625l-0.796875 2.171875q-0.859375 -0.515625 -1.71875 -0.515625q-0.765625 0 -1.390625 0.46875q-0.609375 0.453125 -0.859375 1.28125q-0.390625 1.25 -0.390625 2.734375l0 7.234375l-2.34375 0zm17.923615 -1.703125q-1.3125 1.109375 -2.515625 1.5625q-1.203125 0.453125 -2.578125 0.453125q-2.28125 0 -3.5 -1.109375q-1.21875 -1.109375 -1.21875 -2.84375q0 -1.015625 0.453125 -1.859375q0.46875 -0.84375 1.21875 -1.34375q0.75 -0.515625 1.6875 -0.765625q0.6875 -0.1875 2.078125 -0.359375q2.828125 -0.328125 4.171875 -0.796875q0.015625 -0.484375 0.015625 -0.625q0 -1.421875 -0.65625 -2.015625q-0.90625 -0.796875 -2.671875 -0.796875q-1.65625 0 -2.453125 0.59375q-0.78125 0.578125 -1.15625 2.046875l-2.296875 -0.3125q0.3125 -1.46875 1.03125 -2.375q0.71875 -0.90625 2.0625 -1.390625q1.359375 -0.5 3.140625 -0.5q1.78125 0 2.875 0.421875q1.109375 0.421875 1.625 1.046875q0.53125 0.625 0.734375 1.59375q0.125 0.59375 0.125 2.15625l0 3.125q0 3.265625 0.140625 4.140625q0.15625 0.859375 0.59375 1.65625l-2.4375 0q-0.375 -0.734375 -0.46875 -1.703125zm-0.203125 -5.234375q-1.265625 0.515625 -3.828125 0.890625q-1.4375 0.203125 -2.046875 0.46875q-0.59375 0.25 -0.921875 0.75q-0.3125 0.5 -0.3125 1.125q0 0.9375 0.703125 1.5625q0.703125 0.625 2.078125 0.625q1.34375 0 2.390625 -0.59375q1.0625 -0.59375 1.5625 -1.625q0.375 -0.796875 0.375 -2.34375l0 -0.859375zm5.9967957 6.9375l0 -13.828125l2.109375 0l0 1.96875q1.53125 -2.28125 4.40625 -2.28125q1.25 0 2.296875 0.453125q1.046875 0.453125 1.5625 1.1875q0.53125 0.71875 0.734375 1.71875q0.125 0.65625 0.125 2.28125l0 8.5l-2.34375 0l0 -8.40625q0 -1.4375 -0.28125 -2.140625q-0.265625 -0.71875 -0.96875 -1.140625q-0.6875 -0.421875 -1.625 -0.421875q-1.484375 0 -2.578125 0.953125q-1.09375 0.953125 -1.09375 3.609375l0 7.546875l-2.34375 0zm13.887451 -4.125l2.328125 -0.359375q0.1875 1.390625 1.078125 2.140625q0.890625 0.734375 2.5 0.734375q1.609375 0 2.390625 -0.65625q0.78125 -0.65625 0.78125 -1.546875q0 -0.796875 -0.6875 -1.25q-0.484375 -0.3125 -2.390625 -0.796875q-2.578125 -0.65625 -3.578125 -1.125q-1.0 -0.46875 -1.515625 -1.3125q-0.515625 -0.84375 -0.515625 -1.859375q0 -0.921875 0.421875 -1.703125q0.4375 -0.796875 1.15625 -1.3125q0.546875 -0.40625 1.484375 -0.6875q0.953125 -0.28125 2.03125 -0.28125q1.625 0 2.859375 0.46875q1.234375 0.46875 1.8125 1.28125q0.59375 0.796875 0.8125 2.140625l-2.296875 0.3125q-0.15625 -1.078125 -0.90625 -1.671875q-0.75 -0.59375 -2.109375 -0.59375q-1.609375 0 -2.3125 0.53125q-0.6875 0.53125 -0.6875 1.25q0 0.453125 0.296875 0.8125q0.28125 0.375 0.890625 0.625q0.359375 0.140625 2.078125 0.609375q2.484375 0.65625 3.46875 1.078125q0.984375 0.421875 1.53125 1.234375q0.5625 0.796875 0.5625 2.0q0 1.171875 -0.6875 2.21875q-0.671875 1.03125 -1.96875 1.59375q-1.28125 0.5625 -2.90625 0.5625q-2.703125 0 -4.125 -1.109375q-1.40625 -1.125 -1.796875 -3.328125zm23.296875 2.421875q-1.3125 1.109375 -2.515625 1.5625q-1.203125 0.453125 -2.578125 0.453125q-2.28125 0 -3.5 -1.109375q-1.21875 -1.109375 -1.21875 -2.84375q0 -1.015625 0.453125 -1.859375q0.46875 -0.84375 1.21875 -1.34375q0.75 -0.515625 1.6875 -0.765625q0.6875 -0.1875 2.078125 -0.359375q2.828125 -0.328125 4.171875 -0.796875q0.015625 -0.484375 0.015625 -0.625q0 -1.421875 -0.65625 -2.015625q-0.90625 -0.796875 -2.671875 -0.796875q-1.65625 0 -2.453125 0.59375q-0.78125 0.578125 -1.15625 2.046875l-2.296875 -0.3125q0.3125 -1.46875 1.03125 -2.375q0.71875 -0.90625 2.0625 -1.390625q1.359375 -0.5 3.140625 -0.5q1.78125 0 2.875 0.421875q1.109375 0.421875 1.625 1.046875q0.53125 0.625 0.734375 1.59375q0.125 0.59375 0.125 2.15625l0 3.125q0 3.265625 0.140625 4.140625q0.15625 0.859375 0.59375 1.65625l-2.4375 0q-0.375 -0.734375 -0.46875 -1.703125zm-0.203125 -5.234375q-1.265625 0.515625 -3.828125 0.890625q-1.4375 0.203125 -2.046875 0.46875q-0.59375 0.25 -0.921875 0.75q-0.3125 0.5 -0.3125 1.125q0 0.9375 0.703125 1.5625q0.703125 0.625 2.078125 0.625q1.34375 0 2.390625 -0.59375q1.0625 -0.59375 1.5625 -1.625q0.375 -0.796875 0.375 -2.34375l0 -0.859375zm15.028046 1.875l2.296875 0.296875q-0.375 2.390625 -1.9375 3.734375q-1.546875 1.34375 -3.8125 1.34375q-2.84375 0 -4.5625 -1.84375q-1.71875 -1.859375 -1.71875 -5.328125q0 -2.234375 0.734375 -3.90625q0.75 -1.6875 2.265625 -2.53125q1.515625 -0.84375 3.296875 -0.84375q2.25 0 3.671875 1.140625q1.4375 1.140625 1.84375 3.234375l-2.28125 0.359375q-0.328125 -1.390625 -1.15625 -2.09375q-0.8125 -0.703125 -1.984375 -0.703125q-1.78125 0 -2.890625 1.265625q-1.09375 1.265625 -1.09375 4.015625q0 2.78125 1.0625 4.046875q1.0625 1.265625 2.78125 1.265625q1.390625 0 2.3125 -0.84375q0.921875 -0.859375 1.171875 -2.609375zm9.421875 2.96875l0.328125 2.0625q-0.984375 0.21875 -1.765625 0.21875q-1.265625 0 -1.96875 -0.40625q-0.703125 -0.40625 -1.0 -1.0625q-0.28125 -0.65625 -0.28125 -2.765625l0 -7.953125l-1.71875 0l0 -1.828125l1.71875 0l0 -3.421875l2.328125 -1.40625l0 4.828125l2.359375 0l0 1.828125l-2.359375 0l0 8.078125q0 1.0 0.125 1.296875q0.125 0.28125 0.40625 0.453125q0.28125 0.171875 0.796875 0.171875q0.390625 0 1.03125 -0.09375zm2.2966003 -14.296875l0 -2.6875l2.34375 0l0 2.6875l-2.34375 0zm0 16.390625l0 -13.828125l2.34375 0l0 13.828125l-2.34375 0zm5.0471497 -6.90625q0 -3.84375 2.125 -5.6875q1.78125 -1.546875 4.34375 -1.546875q2.859375 0 4.65625 1.875q1.8125 1.859375 1.8125 5.15625q0 2.671875 -0.796875 4.203125q-0.796875 1.53125 -2.328125 2.375q-1.53125 0.84375 -3.34375 0.84375q-2.890625 0 -4.6875 -1.859375q-1.78125 -1.859375 -1.78125 -5.359375zm2.40625 0q0 2.65625 1.15625 3.984375q1.15625 1.3125 2.90625 1.3125q1.75 0 2.90625 -1.328125q1.15625 -1.328125 1.15625 -4.046875q0 -2.5625 -1.171875 -3.890625q-1.15625 -1.328125 -2.890625 -1.328125q-1.75 0 -2.90625 1.328125q-1.15625 1.3125 -1.15625 3.96875zm13.278076 6.90625l0 -13.828125l2.109375 0l0 1.96875q1.53125 -2.28125 4.40625 -2.28125q1.25 0 2.296875 0.453125q1.046875 0.453125 1.5625 1.1875q0.53125 0.71875 0.734375 1.71875q0.125 0.65625 0.125 2.28125l0 8.5l-2.34375 0l0 -8.40625q0 -1.4375 -0.28125 -2.140625q-0.265625 -0.71875 -0.96875 -1.140625q-0.6875 -0.421875 -1.625 -0.421875q-1.484375 0 -2.578125 0.953125q-1.09375 0.953125 -1.09375 3.609375l0 7.546875l-2.34375 0z" fill-rule="nonzero"/><path fill="#000000" fill-opacity="0.0" d="m17.223097 672.77167l299.14963 0l0 37.165344l-299.14963 0z" fill-rule="evenodd"/><path fill="#666666" d="m32.2231 685.17975q1.359375 0 2.65625 0.703125q1.296875 0.6875 2.015625 2.0q0.71875 1.296875 0.71875 2.703125q0 1.390625 -0.71875 2.6875q-0.703125 1.28125 -1.984375 2.0q-1.28125 0.703125 -2.6875 0.703125q-1.4062519 0 -2.687502 -0.703125q-1.28125 -0.71875 -2.0 -2.0q-0.71875 -1.296875 -0.71875 -2.6875q0 -1.40625 0.71875 -2.703125q0.734375 -1.3125 2.03125 -2.0q1.296875 -0.703125 2.656252 -0.703125zm0 0.890625q-1.1406269 0 -2.218752 0.59375q-1.078125 0.578125 -1.6875 1.671875q-0.609375 1.078125 -0.609375 2.25q0 1.171875 0.59375 2.25q0.609375 1.0625 1.671875 1.65625q1.078125 0.59375 2.250002 0.59375q1.15625 0 2.234375 -0.59375q1.078125 -0.59375 1.671875 -1.65625q0.59375 -1.078125 0.59375 -2.25q0 -1.171875 -0.609375 -2.25q-0.609375 -1.09375 -1.6875 -1.671875q-1.078125 -0.59375 -2.203125 -0.59375zm1.734375 5.390625l0.875 0.25q-0.21875 0.90625 -0.921875 1.4375q-0.6875 0.53125 -1.6875 0.53125q-1.2500019 0 -2.046877 -0.8125q-0.78125 -0.828125 -0.78125 -2.265625q0 -0.953125 0.359375 -1.640625q0.359375 -0.703125 1.015625 -1.046875q0.65625 -0.359375 1.5156269 -0.359375q0.953125 0 1.578125 0.453125q0.625 0.453125 0.859375 1.234375l-0.84375 0.203125q-0.21875 -0.53125 -0.640625 -0.8125q-0.421875 -0.28125 -0.984375 -0.28125q-0.8281269 0 -1.3593769 0.59375q-0.53125 0.578125 -0.53125 1.671875q0 1.09375 0.5 1.65625q0.515625 0.5625 1.3125019 0.5625q0.640625 0 1.125 -0.359375q0.5 -0.375 0.65625 -1.015625zm7.995941 4.390625q0.203125 -0.9375 0.546875 -1.5625q0.359375 -0.640625 0.9375 -1.203125q0.59375 -0.578125 2.265625 -1.921875q1.015625 -0.796875 1.390625 -1.1875q0.546875 -0.5625 0.78125 -1.09375q0.171875 -0.359375 0.171875 -0.796875q0 -0.71875 -0.515625 -1.21875q-0.515625 -0.515625 -1.25 -0.515625q-0.75 0 -1.296875 0.515625q-0.546875 0.515625 -0.78125 1.640625l-1.265625 -0.1875q0.1875 -1.390625 1.078125 -2.1875q0.90625 -0.8125 2.234375 -0.8125q0.890625 0 1.609375 0.375q0.734375 0.359375 1.09375 1.046875q0.375 0.671875 0.375 1.375q0 1.046875 -0.734375 2.015625q-0.46875 0.609375 -2.703125 2.375q-0.953125 0.75 -1.421875 1.234375q-0.46875 0.484375 -0.703125 0.921875l4.6875 0l-0.25 1.1875l-6.25 0zm8.322983 -3.4375q0 -1.328125 0.390625 -2.703125q0.40625 -1.375 0.890625 -2.203125q0.5 -0.828125 1.015625 -1.28125q0.515625 -0.46875 1.015625 -0.6875q0.515625 -0.21875 1.125 -0.21875q1.203125 0 2.0 0.890625q0.8125 0.890625 0.8125 2.578125q0 1.75 -0.546875 3.453125q-0.65625 2.015625 -1.84375 3.015625q-0.890625 0.765625 -2.046875 0.765625q-1.1875 0 -2.0 -0.921875q-0.8125 -0.921875 -0.8125 -2.6875zm1.265625 0.328125q0 0.96875 0.3125 1.5q0.4375 0.75 1.296875 0.75q0.75 0 1.375 -0.671875q0.875 -0.953125 1.328125 -2.796875q0.453125 -1.859375 0.453125 -3.03125q0 -1.140625 -0.4375 -1.640625q-0.4375 -0.5 -1.140625 -0.5q-0.515625 0 -0.96875 0.265625q-0.4375 0.265625 -0.84375 0.90625q-0.59375 0.921875 -1.015625 2.71875q-0.359375 1.546875 -0.359375 2.5zm6.713608 3.109375q0.203125 -0.9375 0.546875 -1.5625q0.359375 -0.640625 0.9375 -1.203125q0.59375 -0.578125 2.265625 -1.921875q1.015625 -0.796875 1.390625 -1.1875q0.546875 -0.5625 0.78125 -1.09375q0.171875 -0.359375 0.171875 -0.796875q0 -0.71875 -0.515625 -1.21875q-0.515625 -0.515625 -1.25 -0.515625q-0.75 0 -1.296875 0.515625q-0.546875 0.515625 -0.78125 1.640625l-1.265625 -0.1875q0.1875 -1.390625 1.078125 -2.1875q0.90625 -0.8125 2.234375 -0.8125q0.890625 0 1.609375 0.375q0.734375 0.359375 1.09375 1.046875q0.375 0.671875 0.375 1.375q0 1.046875 -0.734375 2.015625q-0.46875 0.609375 -2.703125 2.375q-0.953125 0.75 -1.421875 1.234375q-0.46875 0.484375 -0.703125 0.921875l4.6875 0l-0.25 1.1875l-6.25 0zm8.307358 -3.0l1.328125 -0.125q-0.015625 0.28125 -0.015625 0.328125q0 0.484375 0.234375 0.96875q0.25 0.46875 0.65625 0.71875q0.40625 0.25 0.875 0.25q0.59375 0 1.21875 -0.40625q0.625 -0.421875 1.0 -1.203125q0.390625 -0.796875 0.390625 -1.578125q0 -0.890625 -0.515625 -1.40625q-0.515625 -0.53125 -1.359375 -0.53125q-0.5625 0 -1.078125 0.265625q-0.5 0.265625 -0.9375 0.8125l-1.125 -0.078125l1.578125 -5.359375l5.125 0l-0.25 1.1875l-3.984375 0l-0.796875 2.671875q0.453125 -0.328125 0.921875 -0.484375q0.46875 -0.171875 0.953125 -0.171875q1.203125 0 1.96875 0.796875q0.78125 0.796875 0.78125 2.171875q0 1.21875 -0.53125 2.234375q-0.53125 1.015625 -1.453125 1.5625q-0.921875 0.546875 -2.0 0.546875q-0.90625 0 -1.609375 -0.40625q-0.6875 -0.40625 -1.03125 -1.109375q-0.34375 -0.71875 -0.34375 -1.4375q0 -0.078125 0 -0.21875zm11.6918335 3.0l1.578125 -7.59375l1.296875 0l-0.265625 1.25q0.734375 -0.8125 1.296875 -1.109375q0.5625 -0.3125 1.234375 -0.3125q0.703125 0 1.171875 0.375q0.484375 0.375 0.640625 1.046875q0.578125 -0.71875 1.21875 -1.0625q0.640625 -0.359375 1.34375 -0.359375q0.953125 0 1.421875 0.453125q0.484375 0.4375 0.484375 1.265625q0 0.34375 -0.15625 1.15625l-1.03125 4.890625l-1.296875 0l1.046875 -5.03125q0.140625 -0.609375 0.140625 -0.875q0 -0.375 -0.234375 -0.578125q-0.234375 -0.21875 -0.671875 -0.21875q-0.578125 0 -1.1875 0.359375q-0.59375 0.34375 -0.9375 0.921875q-0.328125 0.5625 -0.578125 1.734375l-0.765625 3.6875l-1.296875 0l1.078125 -5.125q0.109375 -0.53125 0.109375 -0.75q0 -0.375 -0.234375 -0.59375q-0.234375 -0.234375 -0.609375 -0.234375q-0.546875 0 -1.15625 0.359375q-0.59375 0.34375 -0.984375 0.96875q-0.375 0.625 -0.609375 1.78125l-0.75 3.59375l-1.296875 0zm17.33377 -0.9375q-0.671875 0.578125 -1.296875 0.84375q-0.625 0.265625 -1.328125 0.265625q-1.046875 0 -1.703125 -0.609375q-0.640625 -0.625 -0.640625 -1.59375q0 -0.640625 0.28125 -1.125q0.296875 -0.5 0.78125 -0.796875q0.484375 -0.296875 1.171875 -0.421875q0.4375 -0.078125 1.65625 -0.125q1.21875 -0.0625 1.75 -0.265625q0.15625 -0.53125 0.15625 -0.875q0 -0.453125 -0.328125 -0.71875q-0.453125 -0.359375 -1.328125 -0.359375q-0.8125 0 -1.328125 0.375q-0.515625 0.359375 -0.75 1.015625l-1.3125 -0.109375q0.40625 -1.125 1.265625 -1.71875q0.875 -0.609375 2.203125 -0.609375q1.40625 0 2.21875 0.671875q0.640625 0.5 0.640625 1.296875q0 0.609375 -0.1875 1.40625l-0.421875 1.890625q-0.203125 0.90625 -0.203125 1.46875q0 0.359375 0.171875 1.03125l-1.3125 0q-0.109375 -0.375 -0.15625 -0.9375zm0.484375 -2.90625q-0.28125 0.09375 -0.59375 0.15625q-0.296875 0.0625 -1.03125 0.125q-1.140625 0.09375 -1.609375 0.25q-0.453125 0.15625 -0.6875 0.5q-0.234375 0.328125 -0.234375 0.734375q0 0.546875 0.375 0.90625q0.375 0.34375 1.0625 0.34375q0.640625 0 1.234375 -0.34375q0.59375 -0.34375 0.9375 -0.953125q0.34375 -0.609375 0.546875 -1.71875zm2.0417328 3.84375l3.296875 -3.859375l-1.890625 -3.734375l1.421875 0l0.65625 1.34375q0.359375 0.765625 0.640625 1.453125l2.1875 -2.796875l1.578125 0l-3.1875 3.84375l1.921875 3.75l-1.4375 0l-0.75 -1.546875q-0.25 -0.5 -0.5625 -1.21875l-2.25 2.765625l-1.625 0zm12.087601 0l1.375 -6.59375l-1.15625 0l0.203125 -1.0l1.15625 0l0.21875 -1.09375q0.171875 -0.796875 0.359375 -1.15625q0.1875 -0.359375 0.59375 -0.59375q0.40625 -0.234375 1.125 -0.234375q0.484375 0 1.421875 0.203125l-0.234375 1.140625q-0.65625 -0.171875 -1.09375 -0.171875q-0.375 0 -0.578125 0.1875q-0.203125 0.1875 -0.34375 0.890625l-0.171875 0.828125l1.453125 0l-0.21875 1.0l-1.4375 0l-1.390625 6.59375l-1.28125 0zm9.071976 -1.375q-1.359375 1.546875 -2.796875 1.546875q-0.875 0 -1.421875 -0.5q-0.53125 -0.515625 -0.53125 -1.234375q0 -0.484375 0.234375 -1.65625l0.921875 -4.375l1.296875 0l-1.015625 4.859375q-0.140625 0.609375 -0.140625 0.9375q0 0.4375 0.265625 0.671875q0.265625 0.234375 0.765625 0.234375q0.546875 0 1.0625 -0.265625q0.53125 -0.265625 0.90625 -0.703125q0.375 -0.453125 0.609375 -1.078125q0.15625 -0.390625 0.359375 -1.375l0.6875 -3.28125l1.296875 0l-1.59375 7.59375l-1.1875 0l0.28125 -1.375zm2.9636078 1.375l1.59375 -7.59375l1.171875 0l-0.28125 1.3125q0.765625 -0.78125 1.421875 -1.125q0.671875 -0.359375 1.375 -0.359375q0.921875 0 1.4375 0.5q0.53125 0.5 0.53125 1.328125q0 0.421875 -0.1875 1.34375l-0.96875 4.59375l-1.296875 0l1.015625 -4.8125q0.15625 -0.703125 0.15625 -1.046875q0 -0.375 -0.265625 -0.609375q-0.265625 -0.234375 -0.75 -0.234375q-1.0 0 -1.78125 0.71875q-0.765625 0.703125 -1.140625 2.453125l-0.734375 3.53125l-1.296875 0zm8.166733 0l2.203125 -10.484375l1.28125 0l-1.359375 6.5l3.78125 -3.609375l1.703125 0l-3.234375 2.828125l1.953125 4.765625l-1.40625 0l-1.515625 -3.90625l-1.578125 1.359375l-0.53125 2.546875l-1.296875 0zm16.509476 -0.9375q-0.671875 0.578125 -1.296875 0.84375q-0.625 0.265625 -1.328125 0.265625q-1.046875 0 -1.703125 -0.609375q-0.640625 -0.625 -0.640625 -1.59375q0 -0.640625 0.28125 -1.125q0.296875 -0.5 0.78125 -0.796875q0.484375 -0.296875 1.171875 -0.421875q0.4375 -0.078125 1.65625 -0.125q1.21875 -0.0625 1.75 -0.265625q0.15625 -0.53125 0.15625 -0.875q0 -0.453125 -0.328125 -0.71875q-0.453125 -0.359375 -1.328125 -0.359375q-0.8125 0 -1.328125 0.375q-0.515625 0.359375 -0.75 1.015625l-1.3125 -0.109375q0.40625 -1.125 1.265625 -1.71875q0.875 -0.609375 2.203125 -0.609375q1.40625 0 2.21875 0.671875q0.640625 0.5 0.640625 1.296875q0 0.609375 -0.1875 1.40625l-0.421875 1.890625q-0.203125 0.90625 -0.203125 1.46875q0 0.359375 0.171875 1.03125l-1.3125 0q-0.109375 -0.375 -0.15625 -0.9375zm0.484375 -2.90625q-0.28125 0.09375 -0.59375 0.15625q-0.296875 0.0625 -1.03125 0.125q-1.140625 0.09375 -1.609375 0.25q-0.453125 0.15625 -0.6875 0.5q-0.234375 0.328125 -0.234375 0.734375q0 0.546875 0.375 0.90625q0.375 0.34375 1.0625 0.34375q0.640625 0 1.234375 -0.34375q0.59375 -0.34375 0.9375 -0.953125q0.34375 -0.609375 0.546875 -1.71875zm2.4479828 3.84375l2.1875 -10.484375l1.296875 0l-2.1875 10.484375l-1.296875 0zm3.2561493 0l2.1875 -10.484375l1.296875 0l-2.1875 10.484375l-1.296875 0zm7.421875 0l1.59375 -7.59375l1.140625 0l-0.328125 1.546875q0.59375 -0.875 1.15625 -1.296875q0.5625 -0.421875 1.15625 -0.421875q0.375 0 0.9375 0.265625l-0.515625 1.203125q-0.34375 -0.234375 -0.75 -0.234375q-0.671875 0 -1.390625 0.765625q-0.71875 0.75 -1.125 2.71875l-0.640625 3.046875l-1.234375 0zm6.7243958 -9.03125l0.3125 -1.453125l1.28125 0l-0.3125 1.453125l-1.28125 0zm-1.890625 9.03125l1.59375 -7.59375l1.296875 0l-1.59375 7.59375l-1.296875 0zm3.2405243 0.6875l1.296875 0.125q-0.015625 0.4375 0.109375 0.65625q0.125 0.234375 0.390625 0.34375q0.34375 0.15625 0.90625 0.15625q1.171875 0 1.6875 -0.609375q0.34375 -0.40625 0.625 -1.765625l0.125 -0.609375q-1.0 1.015625 -2.140625 1.015625q-1.15625 0 -1.9375 -0.84375q-0.765625 -0.859375 -0.765625 -2.40625q0 -1.28125 0.609375 -2.34375q0.609375 -1.078125 1.453125 -1.625q0.84375 -0.546875 1.734375 -0.546875q1.5 0 2.3125 1.40625l0.25 -1.234375l1.1875 0l-1.53125 7.328125q-0.25 1.203125 -0.65625 1.875q-0.40625 0.6875 -1.140625 1.0625q-0.71875 0.375 -1.671875 0.375q-0.90625 0 -1.578125 -0.25q-0.65625 -0.234375 -0.984375 -0.6875q-0.328125 -0.453125 -0.328125 -1.03125q0 -0.1875 0.046875 -0.390625zm1.609375 -4.046875q0 0.78125 0.15625 1.171875q0.203125 0.546875 0.59375 0.84375q0.40625 0.28125 0.890625 0.28125q0.640625 0 1.265625 -0.4375q0.640625 -0.453125 1.03125 -1.390625q0.390625 -0.9375 0.390625 -1.796875q0 -0.9375 -0.53125 -1.484375q-0.515625 -0.5625 -1.28125 -0.5625q-0.46875 0 -0.921875 0.265625q-0.4375 0.25 -0.828125 0.765625q-0.375 0.515625 -0.578125 1.25q-0.1875 0.71875 -0.1875 1.09375zm6.604233 3.359375l2.1875 -10.484375l1.296875 0l-0.828125 4.015625q0.71875 -0.6875 1.34375 -0.984375q0.625 -0.3125 1.28125 -0.3125q0.9375 0 1.453125 0.5q0.53125 0.484375 0.53125 1.296875q0 0.40625 -0.234375 1.484375l-0.9375 4.484375l-1.296875 0l0.96875 -4.59375q0.21875 -1.015625 0.21875 -1.265625q0 -0.375 -0.265625 -0.609375q-0.25 -0.234375 -0.75 -0.234375q-0.6875 0 -1.328125 0.375q-0.640625 0.359375 -1.0 1.0q-0.359375 0.640625 -0.65625 2.0625l-0.6875 3.265625l-1.296875 0zm11.182358 -1.046875l-0.21875 1.046875q-0.46875 0.125 -0.90625 0.125q-0.765625 0 -1.21875 -0.375q-0.34375 -0.28125 -0.34375 -0.78125q0 -0.25 0.1875 -1.15625l0.921875 -4.40625l-1.03125 0l0.203125 -1.0l1.03125 0l0.390625 -1.875l1.484375 -0.890625l-0.578125 2.765625l1.265625 0l-0.203125 1.0l-1.265625 0l-0.890625 4.203125q-0.15625 0.796875 -0.15625 0.953125q0 0.234375 0.125 0.359375q0.140625 0.109375 0.4375 0.109375q0.421875 0 0.765625 -0.078125zm1.1657257 -1.546875l1.296875 -0.078125q0 0.546875 0.171875 0.953125q0.171875 0.390625 0.625 0.640625q0.46875 0.25 1.078125 0.25q0.859375 0 1.28125 -0.34375q0.4375 -0.34375 0.4375 -0.8125q0 -0.328125 -0.25 -0.640625q-0.265625 -0.296875 -1.296875 -0.734375q-1.03125 -0.4375 -1.3125 -0.625q-0.484375 -0.28125 -0.734375 -0.671875q-0.234375 -0.40625 -0.234375 -0.921875q0 -0.90625 0.71875 -1.546875q0.71875 -0.640625 2.0 -0.640625q1.4375 0 2.1875 0.65625q0.75 0.65625 0.765625 1.734375l-1.265625 0.09375q-0.03125 -0.6875 -0.484375 -1.078125q-0.453125 -0.40625 -1.296875 -0.40625q-0.671875 0 -1.046875 0.3125q-0.359375 0.296875 -0.359375 0.65625q0 0.359375 0.3125 0.625q0.21875 0.1875 1.109375 0.578125q1.484375 0.640625 1.875 1.015625q0.625 0.59375 0.625 1.453125q0 0.5625 -0.359375 1.109375q-0.34375 0.53125 -1.0625 0.859375q-0.703125 0.328125 -1.671875 0.328125q-1.3125 0 -2.234375 -0.65625q-0.921875 -0.640625 -0.875 -2.109375zm11.275101 2.59375l1.59375 -7.59375l1.140625 0l-0.328125 1.546875q0.59375 -0.875 1.15625 -1.296875q0.5625 -0.421875 1.15625 -0.421875q0.375 0 0.9375 0.265625l-0.515625 1.203125q-0.34375 -0.234375 -0.75 -0.234375q-0.671875 0 -1.390625 0.765625q-0.71875 0.75 -1.125 2.71875l-0.640625 3.046875l-1.234375 0zm10.458771 -2.578125l1.265625 0.125q-0.265625 0.9375 -1.25 1.78125q-0.96875 0.84375 -2.328125 0.84375q-0.84375 0 -1.546875 -0.390625q-0.703125 -0.390625 -1.078125 -1.125q-0.359375 -0.75 -0.359375 -1.703125q0 -1.25 0.5625 -2.421875q0.578125 -1.171875 1.5 -1.734375q0.921875 -0.5625 1.984375 -0.5625q1.359375 0 2.171875 0.84375q0.8125 0.84375 0.8125 2.296875q0 0.5625 -0.109375 1.140625l-5.59375 0q-0.03125 0.234375 -0.03125 0.40625q0 1.0625 0.484375 1.625q0.5 0.5625 1.203125 0.5625q0.671875 0 1.3125 -0.4375q0.640625 -0.4375 1.0 -1.25zm-3.765625 -1.890625l4.265625 0q0.015625 -0.203125 0.015625 -0.28125q0 -0.96875 -0.484375 -1.484375q-0.484375 -0.53125 -1.25 -0.53125q-0.84375 0 -1.53125 0.578125q-0.671875 0.5625 -1.015625 1.71875zm6.463608 1.875l1.296875 -0.078125q0 0.546875 0.171875 0.953125q0.171875 0.390625 0.625 0.640625q0.46875 0.25 1.078125 0.25q0.859375 0 1.28125 -0.34375q0.4375 -0.34375 0.4375 -0.8125q0 -0.328125 -0.25 -0.640625q-0.265625 -0.296875 -1.296875 -0.734375q-1.03125 -0.4375 -1.3125 -0.625q-0.484375 -0.28125 -0.734375 -0.671875q-0.234375 -0.40625 -0.234375 -0.921875q0 -0.90625 0.71875 -1.546875q0.71875 -0.640625 2.0 -0.640625q1.4375 0 2.1875 0.65625q0.75 0.65625 0.765625 1.734375l-1.265625 0.09375q-0.03125 -0.6875 -0.484375 -1.078125q-0.453125 -0.40625 -1.296875 -0.40625q-0.671875 0 -1.046875 0.3125q-0.359375 0.296875 -0.359375 0.65625q0 0.359375 0.3125 0.625q0.21875 0.1875 1.109375 0.578125q1.484375 0.640625 1.875 1.015625q0.625 0.59375 0.625 1.453125q0 0.5625 -0.359375 1.109375q-0.34375 0.53125 -1.0625 0.859375q-0.703125 0.328125 -1.671875 0.328125q-1.3125 0 -2.234375 -0.65625q-0.921875 -0.640625 -0.875 -2.109375zm12.78125 0.015625l1.265625 0.125q-0.265625 0.9375 -1.25 1.78125q-0.96875 0.84375 -2.328125 0.84375q-0.84375 0 -1.546875 -0.390625q-0.703125 -0.390625 -1.078125 -1.125q-0.359375 -0.75 -0.359375 -1.703125q0 -1.25 0.5625 -2.421875q0.578125 -1.171875 1.5 -1.734375q0.921875 -0.5625 1.984375 -0.5625q1.359375 0 2.171875 0.84375q0.8125 0.84375 0.8125 2.296875q0 0.5625 -0.109375 1.140625l-5.59375 0q-0.03125 0.234375 -0.03125 0.40625q0 1.0625 0.484375 1.625q0.5 0.5625 1.203125 0.5625q0.671875 0 1.3125 -0.4375q0.640625 -0.4375 1.0 -1.25zm-3.765625 -1.890625l4.265625 0q0.015625 -0.203125 0.015625 -0.28125q0 -0.96875 -0.484375 -1.484375q-0.484375 -0.53125 -1.25 -0.53125q-0.84375 0 -1.53125 0.578125q-0.671875 0.5625 -1.015625 1.71875zm6.338608 4.46875l1.59375 -7.59375l1.140625 0l-0.328125 1.546875q0.59375 -0.875 1.15625 -1.296875q0.5625 -0.421875 1.15625 -0.421875q0.375 0 0.9375 0.265625l-0.515625 1.203125q-0.34375 -0.234375 -0.75 -0.234375q-0.671875 0 -1.390625 0.765625q-0.71875 0.75 -1.125 2.71875l-0.640625 3.046875l-1.234375 0zm6.8025208 0l-1.25 -7.59375l1.265625 0l0.640625 4.1875q0.109375 0.671875 0.265625 2.234375q0.375 -0.8125 0.953125 -1.859375l2.546875 -4.5625l1.359375 0l-4.34375 7.59375l-1.4375 0zm10.984375 -2.578125l1.265625 0.125q-0.265625 0.9375 -1.25 1.78125q-0.96875 0.84375 -2.328125 0.84375q-0.84375 0 -1.546875 -0.390625q-0.703125 -0.390625 -1.078125 -1.125q-0.359375 -0.75 -0.359375 -1.703125q0 -1.25 0.5625 -2.421875q0.578125 -1.171875 1.5 -1.734375q0.921875 -0.5625 1.984375 -0.5625q1.359375 0 2.171875 0.84375q0.8125 0.84375 0.8125 2.296875q0 0.5625 -0.109375 1.140625l-5.59375 0q-0.03125 0.234375 -0.03125 0.40625q0 1.0625 0.484375 1.625q0.5 0.5625 1.203125 0.5625q0.671875 0 1.3125 -0.4375q0.640625 -0.4375 1.0 -1.25zm-3.765625 -1.890625l4.265625 0q0.015625 -0.203125 0.015625 -0.28125q0 -0.96875 -0.484375 -1.484375q-0.484375 -0.53125 -1.25 -0.53125q-0.84375 0 -1.53125 0.578125q-0.671875 0.5625 -1.015625 1.71875zm11.463608 3.359375q-1.109375 1.28125 -2.3125 1.28125q-1.078125 0 -1.8125 -0.796875q-0.71875 -0.796875 -0.71875 -2.3125q0 -1.390625 0.5625 -2.53125q0.578125 -1.15625 1.4375 -1.71875q0.859375 -0.578125 1.71875 -0.578125q1.40625 0 2.140625 1.359375l0.859375 -4.078125l1.28125 0l-2.1875 10.484375l-1.203125 0l0.234375 -1.109375zm-3.546875 -2.078125q0 0.796875 0.15625 1.265625q0.15625 0.453125 0.53125 0.765625q0.390625 0.296875 0.921875 0.296875q0.875 0 1.59375 -0.921875q0.953125 -1.21875 0.953125 -3.0q0 -0.90625 -0.46875 -1.40625q-0.46875 -0.515625 -1.1875 -0.515625q-0.46875 0 -0.859375 0.203125q-0.375 0.203125 -0.75 0.703125q-0.375 0.5 -0.640625 1.265625q-0.25 0.765625 -0.25 1.34375z" fill-rule="nonzero"/><path fill="#000000" fill-opacity="0.0" d="m480.0 672.77167l469.7008 0l0 37.165344l-469.7008 0z" fill-rule="evenodd"/><path fill="#666666" d="m495.53098 696.5391l1.296875 0.125q-0.015625 0.4375 0.109375 0.65625q0.125 0.234375 0.390625 0.34375q0.34375 0.15625 0.90625 0.15625q1.171875 0 1.6875 -0.609375q0.34375 -0.40625 0.625 -1.765625l0.125 -0.609375q-1.0 1.015625 -2.140625 1.015625q-1.15625 0 -1.9375 -0.84375q-0.765625 -0.859375 -0.765625 -2.40625q0 -1.28125 0.609375 -2.34375q0.609375 -1.078125 1.453125 -1.625q0.84375 -0.546875 1.734375 -0.546875q1.5 0 2.3125 1.40625l0.25 -1.234375l1.1875 0l-1.53125 7.328125q-0.25 1.203125 -0.65625 1.875q-0.40625 0.6875 -1.140625 1.0625q-0.71875 0.375 -1.671875 0.375q-0.90625 0 -1.578125 -0.25q-0.65625 -0.234375 -0.984375 -0.6875q-0.328125 -0.453125 -0.328125 -1.03125q0 -0.1875 0.046875 -0.390625zm1.609375 -4.046875q0 0.78125 0.15625 1.171875q0.203125 0.546875 0.59375 0.84375q0.40625 0.28125 0.890625 0.28125q0.640625 0 1.265625 -0.4375q0.640625 -0.453125 1.03125 -1.390625q0.390625 -0.9375 0.390625 -1.796875q0 -0.9375 -0.53125 -1.484375q-0.515625 -0.5625 -1.28125 -0.5625q-0.46875 0 -0.921875 0.265625q-0.4375 0.25 -0.828125 0.765625q-0.375 0.515625 -0.578125 1.25q-0.1875 0.71875 -0.1875 1.09375zm8.447968 -5.671875l0.3125 -1.453125l1.28125 0l-0.3125 1.453125l-1.28125 0zm-1.890625 9.03125l1.59375 -7.59375l1.296875 0l-1.59375 7.59375l-1.296875 0zm6.3342896 -1.046875l-0.21875 1.046875q-0.46875 0.125 -0.90625 0.125q-0.765625 0 -1.21875 -0.375q-0.34375 -0.28125 -0.34375 -0.78125q0 -0.25 0.1875 -1.15625l0.921875 -4.40625l-1.03125 0l0.203125 -1.0l1.03125 0l0.390625 -1.875l1.484375 -0.890625l-0.578125 2.765625l1.265625 0l-0.203125 1.0l-1.265625 0l-0.890625 4.203125q-0.15625 0.796875 -0.15625 0.953125q0 0.234375 0.125 0.359375q0.140625 0.109375 0.4375 0.109375q0.421875 0 0.765625 -0.078125zm1.0407104 1.046875l2.1875 -10.484375l1.296875 0l-0.828125 4.015625q0.71875 -0.6875 1.34375 -0.984375q0.625 -0.3125 1.28125 -0.3125q0.9375 0 1.453125 0.5q0.53125 0.484375 0.53125 1.296875q0 0.40625 -0.234375 1.484375l-0.9375 4.484375l-1.296875 0l0.96875 -4.59375q0.21875 -1.015625 0.21875 -1.265625q0 -0.375 -0.265625 -0.609375q-0.25 -0.234375 -0.75 -0.234375q-0.6875 0 -1.328125 0.375q-0.640625 0.359375 -1.0 1.0q-0.359375 0.640625 -0.65625 2.0625l-0.6875 3.265625l-1.296875 0zm13.338623 -1.375q-1.359375 1.546875 -2.796875 1.546875q-0.875 0 -1.421875 -0.5q-0.53125 -0.515625 -0.53125 -1.234375q0 -0.484375 0.234375 -1.65625l0.921875 -4.375l1.296875 0l-1.015625 4.859375q-0.140625 0.609375 -0.140625 0.9375q0 0.4375 0.265625 0.671875q0.265625 0.234375 0.765625 0.234375q0.546875 0 1.0625 -0.265625q0.53125 -0.265625 0.90625 -0.703125q0.375 -0.453125 0.609375 -1.078125q0.15625 -0.390625 0.359375 -1.375l0.6875 -3.28125l1.296875 0l-1.59375 7.59375l-1.1875 0l0.28125 -1.375zm2.963623 1.375l2.1875 -10.484375l1.296875 0l-0.78125 3.75q0.625 -0.578125 1.125 -0.796875q0.5 -0.234375 1.046875 -0.234375q1.0625 0 1.765625 0.796875q0.71875 0.78125 0.71875 2.296875q0 1.015625 -0.296875 1.859375q-0.28125 0.828125 -0.703125 1.40625q-0.421875 0.5625 -0.875 0.90625q-0.4375 0.328125 -0.921875 0.5q-0.46875 0.171875 -0.90625 0.171875q-0.75 0 -1.328125 -0.390625q-0.5625 -0.40625 -0.890625 -1.21875l-0.296875 1.4375l-1.140625 0zm1.921875 -3.125l-0.015625 0.25q0 0.96875 0.46875 1.484375q0.46875 0.5 1.15625 0.5q0.6875 0 1.25 -0.46875q0.578125 -0.484375 0.9375 -1.484375q0.359375 -1.015625 0.359375 -1.859375q0 -0.96875 -0.46875 -1.5q-0.453125 -0.53125 -1.125 -0.53125q-0.703125 0 -1.296875 0.546875q-0.578125 0.546875 -0.96875 1.671875q-0.296875 0.828125 -0.296875 1.390625zm6.588562 3.125l0.3125 -1.46875l1.46875 0l-0.328125 1.46875l-1.453125 0zm8.9626465 -2.765625l1.296875 0.125q-0.484375 1.4375 -1.390625 2.125q-0.890625 0.6875 -2.046875 0.6875q-1.234375 0 -2.0 -0.796875q-0.765625 -0.8125 -0.765625 -2.25q0 -1.234375 0.484375 -2.4375q0.5 -1.203125 1.421875 -1.828125q0.921875 -0.625 2.09375 -0.625q1.21875 0 1.9375 0.6875q0.71875 0.6875 0.71875 1.828125l-1.265625 0.078125q-0.015625 -0.71875 -0.4375 -1.125q-0.40625 -0.40625 -1.078125 -0.40625q-0.78125 0 -1.359375 0.5q-0.5625 0.484375 -0.890625 1.5q-0.328125 1.0 -0.328125 1.921875q0 0.984375 0.421875 1.46875q0.4375 0.484375 1.078125 0.484375q0.625 0 1.203125 -0.484375q0.578125 -0.484375 0.90625 -1.453125zm2.3125 -0.125q0 -2.21875 1.3125 -3.671875q1.078125 -1.203125 2.828125 -1.203125q1.375 0 2.21875 0.859375q0.84375 0.859375 0.84375 2.3125q0 1.3125 -0.53125 2.4375q-0.53125 1.125 -1.515625 1.734375q-0.96875 0.59375 -2.046875 0.59375q-0.890625 0 -1.625 -0.375q-0.71875 -0.390625 -1.109375 -1.078125q-0.375 -0.6875 -0.375 -1.609375zm1.296875 -0.125q0 1.078125 0.515625 1.640625q0.515625 0.546875 1.296875 0.546875q0.421875 0 0.828125 -0.171875q0.40625 -0.171875 0.75 -0.515625q0.359375 -0.34375 0.609375 -0.78125q0.25 -0.4375 0.390625 -0.9375q0.234375 -0.71875 0.234375 -1.359375q0 -1.03125 -0.53125 -1.59375q-0.515625 -0.578125 -1.296875 -0.578125q-0.609375 0 -1.109375 0.296875q-0.5 0.28125 -0.90625 0.84375q-0.40625 0.546875 -0.59375 1.296875q-0.1875 0.734375 -0.1875 1.3125zm6.619873 3.015625l1.578125 -7.59375l1.296875 0l-0.265625 1.25q0.734375 -0.8125 1.296875 -1.109375q0.5625 -0.3125 1.234375 -0.3125q0.703125 0 1.171875 0.375q0.484375 0.375 0.640625 1.046875q0.578125 -0.71875 1.21875 -1.0625q0.640625 -0.359375 1.34375 -0.359375q0.953125 0 1.421875 0.453125q0.484375 0.4375 0.484375 1.265625q0 0.34375 -0.15625 1.15625l-1.03125 4.890625l-1.296875 0l1.046875 -5.03125q0.140625 -0.609375 0.140625 -0.875q0 -0.375 -0.234375 -0.578125q-0.234375 -0.21875 -0.671875 -0.21875q-0.578125 0 -1.1875 0.359375q-0.59375 0.34375 -0.9375 0.921875q-0.328125 0.5625 -0.578125 1.734375l-0.765625 3.6875l-1.296875 0l1.078125 -5.125q0.109375 -0.53125 0.109375 -0.75q0 -0.375 -0.234375 -0.59375q-0.234375 -0.234375 -0.609375 -0.234375q-0.546875 0 -1.15625 0.359375q-0.59375 0.34375 -0.984375 0.96875q-0.375 0.625 -0.609375 1.78125l-0.75 3.59375l-1.296875 0zm10.974365 0.171875l5.640625 -10.84375l1.125 0l-5.640625 10.84375l-1.125 0zm5.4313354 -2.765625l1.296875 -0.078125q0 0.546875 0.171875 0.953125q0.171875 0.390625 0.625 0.640625q0.46875 0.25 1.078125 0.25q0.859375 0 1.28125 -0.34375q0.4375 -0.34375 0.4375 -0.8125q0 -0.328125 -0.25 -0.640625q-0.265625 -0.296875 -1.296875 -0.734375q-1.03125 -0.4375 -1.3125 -0.625q-0.484375 -0.28125 -0.734375 -0.671875q-0.234375 -0.40625 -0.234375 -0.921875q0 -0.90625 0.71875 -1.546875q0.71875 -0.640625 2.0 -0.640625q1.4375 0 2.1875 0.65625q0.75 0.65625 0.765625 1.734375l-1.265625 0.09375q-0.03125 -0.6875 -0.484375 -1.078125q-0.453125 -0.40625 -1.296875 -0.40625q-0.671875 0 -1.046875 0.3125q-0.359375 0.296875 -0.359375 0.65625q0 0.359375 0.3125 0.625q0.21875 0.1875 1.109375 0.578125q1.484375 0.640625 1.875 1.015625q0.625 0.59375 0.625 1.453125q0 0.5625 -0.359375 1.109375q-0.34375 0.53125 -1.0625 0.859375q-0.703125 0.328125 -1.671875 0.328125q-1.3125 0 -2.234375 -0.65625q-0.921875 -0.640625 -0.875 -2.109375zm6.71875 5.53125l0.078125 -1.21875q0.40625 0.109375 0.78125 0.109375q0.390625 0 0.640625 -0.171875q0.3125 -0.234375 0.6875 -0.890625l0.40625 -0.75l-1.265625 -7.609375l1.28125 0l0.5625 3.84375q0.171875 1.125 0.296875 2.265625l3.40625 -6.109375l1.34375 0l-4.84375 8.609375q-0.703125 1.25 -1.25 1.65625q-0.53125 0.40625 -1.25 0.40625q-0.453125 0 -0.875 -0.140625zm7.9375 -5.53125l1.296875 -0.078125q0 0.546875 0.171875 0.953125q0.171875 0.390625 0.625 0.640625q0.46875 0.25 1.078125 0.25q0.859375 0 1.28125 -0.34375q0.4375 -0.34375 0.4375 -0.8125q0 -0.328125 -0.25 -0.640625q-0.265625 -0.296875 -1.296875 -0.734375q-1.03125 -0.4375 -1.3125 -0.625q-0.484375 -0.28125 -0.734375 -0.671875q-0.234375 -0.40625 -0.234375 -0.921875q0 -0.90625 0.71875 -1.546875q0.71875 -0.640625 2.0 -0.640625q1.4375 0 2.1875 0.65625q0.75 0.65625 0.765625 1.734375l-1.265625 0.09375q-0.03125 -0.6875 -0.484375 -1.078125q-0.453125 -0.40625 -1.296875 -0.40625q-0.671875 0 -1.046875 0.3125q-0.359375 0.296875 -0.359375 0.65625q0 0.359375 0.3125 0.625q0.21875 0.1875 1.109375 0.578125q1.484375 0.640625 1.875 1.015625q0.625 0.59375 0.625 1.453125q0 0.5625 -0.359375 1.109375q-0.34375 0.53125 -1.0625 0.859375q-0.703125 0.328125 -1.671875 0.328125q-1.3125 0 -2.234375 -0.65625q-0.921875 -0.640625 -0.875 -2.109375zm10.234375 1.546875l-0.21875 1.046875q-0.46875 0.125 -0.90625 0.125q-0.765625 0 -1.21875 -0.375q-0.34375 -0.28125 -0.34375 -0.78125q0 -0.25 0.1875 -1.15625l0.921875 -4.40625l-1.03125 0l0.203125 -1.0l1.03125 0l0.390625 -1.875l1.484375 -0.890625l-0.578125 2.765625l1.265625 0l-0.203125 1.0l-1.265625 0l-0.890625 4.203125q-0.15625 0.796875 -0.15625 0.953125q0 0.234375 0.125 0.359375q0.140625 0.109375 0.4375 0.109375q0.421875 0 0.765625 -0.078125zm6.6188354 -1.53125l1.265625 0.125q-0.265625 0.9375 -1.25 1.78125q-0.96875 0.84375 -2.328125 0.84375q-0.84375 0 -1.546875 -0.390625q-0.703125 -0.390625 -1.078125 -1.125q-0.359375 -0.75 -0.359375 -1.703125q0 -1.25 0.5625 -2.421875q0.578125 -1.171875 1.5 -1.734375q0.921875 -0.5625 1.984375 -0.5625q1.359375 0 2.171875 0.84375q0.8125 0.84375 0.8125 2.296875q0 0.5625 -0.109375 1.140625l-5.59375 0q-0.03125 0.234375 -0.03125 0.40625q0 1.0625 0.484375 1.625q0.5 0.5625 1.203125 0.5625q0.671875 0 1.3125 -0.4375q0.640625 -0.4375 1.0 -1.25zm-3.765625 -1.890625l4.265625 0q0.015625 -0.203125 0.015625 -0.28125q0 -0.96875 -0.484375 -1.484375q-0.484375 -0.53125 -1.25 -0.53125q-0.84375 0 -1.53125 0.578125q-0.671875 0.5625 -1.015625 1.71875zm6.338623 4.46875l1.578125 -7.59375l1.296875 0l-0.265625 1.25q0.734375 -0.8125 1.296875 -1.109375q0.5625 -0.3125 1.234375 -0.3125q0.703125 0 1.171875 0.375q0.484375 0.375 0.640625 1.046875q0.578125 -0.71875 1.21875 -1.0625q0.640625 -0.359375 1.34375 -0.359375q0.953125 0 1.421875 0.453125q0.484375 0.4375 0.484375 1.265625q0 0.34375 -0.15625 1.15625l-1.03125 4.890625l-1.296875 0l1.046875 -5.03125q0.140625 -0.609375 0.140625 -0.875q0 -0.375 -0.234375 -0.578125q-0.234375 -0.21875 -0.671875 -0.21875q-0.578125 0 -1.1875 0.359375q-0.59375 0.34375 -0.9375 0.921875q-0.328125 0.5625 -0.578125 1.734375l-0.765625 3.6875l-1.296875 0l1.078125 -5.125q0.109375 -0.53125 0.109375 -0.75q0 -0.375 -0.234375 -0.59375q-0.234375 -0.234375 -0.609375 -0.234375q-0.546875 0 -1.15625 0.359375q-0.59375 0.34375 -0.984375 0.96875q-0.375 0.625 -0.609375 1.78125l-0.75 3.59375l-1.296875 0zm17.333801 -0.9375q-0.671875 0.578125 -1.296875 0.84375q-0.625 0.265625 -1.328125 0.265625q-1.046875 0 -1.703125 -0.609375q-0.640625 -0.625 -0.640625 -1.59375q0 -0.640625 0.28125 -1.125q0.296875 -0.5 0.78125 -0.796875q0.484375 -0.296875 1.171875 -0.421875q0.4375 -0.078125 1.65625 -0.125q1.21875 -0.0625 1.75 -0.265625q0.15625 -0.53125 0.15625 -0.875q0 -0.453125 -0.328125 -0.71875q-0.453125 -0.359375 -1.328125 -0.359375q-0.8125 0 -1.328125 0.375q-0.515625 0.359375 -0.75 1.015625l-1.3125 -0.109375q0.40625 -1.125 1.265625 -1.71875q0.875 -0.609375 2.203125 -0.609375q1.40625 0 2.21875 0.671875q0.640625 0.5 0.640625 1.296875q0 0.609375 -0.1875 1.40625l-0.421875 1.890625q-0.203125 0.90625 -0.203125 1.46875q0 0.359375 0.171875 1.03125l-1.3125 0q-0.109375 -0.375 -0.15625 -0.9375zm0.484375 -2.90625q-0.28125 0.09375 -0.59375 0.15625q-0.296875 0.0625 -1.03125 0.125q-1.140625 0.09375 -1.609375 0.25q-0.453125 0.15625 -0.6875 0.5q-0.234375 0.328125 -0.234375 0.734375q0 0.546875 0.375 0.90625q0.375 0.34375 1.0625 0.34375q0.640625 0 1.234375 -0.34375q0.59375 -0.34375 0.9375 -0.953125q0.34375 -0.609375 0.546875 -1.71875zm7.791687 1.078125l1.296875 0.125q-0.484375 1.4375 -1.390625 2.125q-0.890625 0.6875 -2.046875 0.6875q-1.234375 0 -2.0 -0.796875q-0.765625 -0.8125 -0.765625 -2.25q0 -1.234375 0.484375 -2.4375q0.5 -1.203125 1.421875 -1.828125q0.921875 -0.625 2.09375 -0.625q1.21875 0 1.9375 0.6875q0.71875 0.6875 0.71875 1.828125l-1.265625 0.078125q-0.015625 -0.71875 -0.4375 -1.125q-0.40625 -0.40625 -1.078125 -0.40625q-0.78125 0 -1.359375 0.5q-0.5625 0.484375 -0.890625 1.5q-0.328125 1.0 -0.328125 1.921875q0 0.984375 0.421875 1.46875q0.4375 0.484375 1.078125 0.484375q0.625 0 1.203125 -0.484375q0.578125 -0.484375 0.90625 -1.453125zm7.328125 0l1.296875 0.125q-0.484375 1.4375 -1.390625 2.125q-0.890625 0.6875 -2.046875 0.6875q-1.234375 0 -2.0 -0.796875q-0.765625 -0.8125 -0.765625 -2.25q0 -1.234375 0.484375 -2.4375q0.5 -1.203125 1.421875 -1.828125q0.921875 -0.625 2.09375 -0.625q1.21875 0 1.9375 0.6875q0.71875 0.6875 0.71875 1.828125l-1.265625 0.078125q-0.015625 -0.71875 -0.4375 -1.125q-0.40625 -0.40625 -1.078125 -0.40625q-0.78125 0 -1.359375 0.5q-0.5625 0.484375 -0.890625 1.5q-0.328125 1.0 -0.328125 1.921875q0 0.984375 0.421875 1.46875q0.4375 0.484375 1.078125 0.484375q0.625 0 1.203125 -0.484375q0.578125 -0.484375 0.90625 -1.453125zm2.3125 -0.125q0 -2.21875 1.3125 -3.671875q1.078125 -1.203125 2.828125 -1.203125q1.375 0 2.21875 0.859375q0.84375 0.859375 0.84375 2.3125q0 1.3125 -0.53125 2.4375q-0.53125 1.125 -1.515625 1.734375q-0.96875 0.59375 -2.046875 0.59375q-0.890625 0 -1.625 -0.375q-0.71875 -0.390625 -1.109375 -1.078125q-0.375 -0.6875 -0.375 -1.609375zm1.296875 -0.125q0 1.078125 0.515625 1.640625q0.515625 0.546875 1.296875 0.546875q0.421875 0 0.828125 -0.171875q0.40625 -0.171875 0.75 -0.515625q0.359375 -0.34375 0.609375 -0.78125q0.25 -0.4375 0.390625 -0.9375q0.234375 -0.71875 0.234375 -1.359375q0 -1.03125 -0.53125 -1.59375q-0.515625 -0.578125 -1.296875 -0.578125q-0.609375 0 -1.109375 0.296875q-0.5 0.28125 -0.90625 0.84375q-0.40625 0.546875 -0.59375 1.296875q-0.1875 0.734375 -0.1875 1.3125zm11.807373 1.640625q-1.359375 1.546875 -2.796875 1.546875q-0.875 0 -1.421875 -0.5q-0.53125 -0.515625 -0.53125 -1.234375q0 -0.484375 0.234375 -1.65625l0.921875 -4.375l1.296875 0l-1.015625 4.859375q-0.140625 0.609375 -0.140625 0.9375q0 0.4375 0.265625 0.671875q0.265625 0.234375 0.765625 0.234375q0.546875 0 1.0625 -0.265625q0.53125 -0.265625 0.90625 -0.703125q0.375 -0.453125 0.609375 -1.078125q0.15625 -0.390625 0.359375 -1.375l0.6875 -3.28125l1.296875 0l-1.59375 7.59375l-1.1875 0l0.28125 -1.375zm2.963623 1.375l1.59375 -7.59375l1.171875 0l-0.28125 1.3125q0.765625 -0.78125 1.421875 -1.125q0.671875 -0.359375 1.375 -0.359375q0.921875 0 1.4375 0.5q0.53125 0.5 0.53125 1.328125q0 0.421875 -0.1875 1.34375l-0.96875 4.59375l-1.296875 0l1.015625 -4.8125q0.15625 -0.703125 0.15625 -1.046875q0 -0.375 -0.265625 -0.609375q-0.265625 -0.234375 -0.75 -0.234375q-1.0 0 -1.78125 0.71875q-0.765625 0.703125 -1.140625 2.453125l-0.734375 3.53125l-1.296875 0zm11.182373 -1.046875l-0.21875 1.046875q-0.46875 0.125 -0.90625 0.125q-0.765625 0 -1.21875 -0.375q-0.34375 -0.28125 -0.34375 -0.78125q0 -0.25 0.1875 -1.15625l0.921875 -4.40625l-1.03125 0l0.203125 -1.0l1.03125 0l0.390625 -1.875l1.484375 -0.890625l-0.578125 2.765625l1.265625 0l-0.203125 1.0l-1.265625 0l-0.890625 4.203125q-0.15625 0.796875 -0.15625 0.953125q0 0.234375 0.125 0.359375q0.140625 0.109375 0.4375 0.109375q0.421875 0 0.765625 -0.078125zm2.8844604 -7.984375l0.3125 -1.453125l1.28125 0l-0.3125 1.453125l-1.28125 0zm-1.890625 9.03125l1.59375 -7.59375l1.296875 0l-1.59375 7.59375l-1.296875 0zm3.3030396 0l1.59375 -7.59375l1.171875 0l-0.28125 1.3125q0.765625 -0.78125 1.421875 -1.125q0.671875 -0.359375 1.375 -0.359375q0.921875 0 1.4375 0.5q0.53125 0.5 0.53125 1.328125q0 0.421875 -0.1875 1.34375l-0.96875 4.59375l-1.296875 0l1.015625 -4.8125q0.15625 -0.703125 0.15625 -1.046875q0 -0.375 -0.265625 -0.609375q-0.265625 -0.234375 -0.75 -0.234375q-1.0 0 -1.78125 0.71875q-0.765625 0.703125 -1.140625 2.453125l-0.734375 3.53125l-1.296875 0zm8.088623 0.6875l1.296875 0.125q-0.015625 0.4375 0.109375 0.65625q0.125 0.234375 0.390625 0.34375q0.34375 0.15625 0.90625 0.15625q1.171875 0 1.6875 -0.609375q0.34375 -0.40625 0.625 -1.765625l0.125 -0.609375q-1.0 1.015625 -2.140625 1.015625q-1.15625 0 -1.9375 -0.84375q-0.765625 -0.859375 -0.765625 -2.40625q0 -1.28125 0.609375 -2.34375q0.609375 -1.078125 1.453125 -1.625q0.84375 -0.546875 1.734375 -0.546875q1.5 0 2.3125 1.40625l0.25 -1.234375l1.1875 0l-1.53125 7.328125q-0.25 1.203125 -0.65625 1.875q-0.40625 0.6875 -1.140625 1.0625q-0.71875 0.375 -1.671875 0.375q-0.90625 0 -1.578125 -0.25q-0.65625 -0.234375 -0.984375 -0.6875q-0.328125 -0.453125 -0.328125 -1.03125q0 -0.1875 0.046875 -0.390625zm1.609375 -4.046875q0 0.78125 0.15625 1.171875q0.203125 0.546875 0.59375 0.84375q0.40625 0.28125 0.890625 0.28125q0.640625 0 1.265625 -0.4375q0.640625 -0.453125 1.03125 -1.390625q0.390625 -0.9375 0.390625 -1.796875q0 -0.9375 -0.53125 -1.484375q-0.515625 -0.5625 -1.28125 -0.5625q-0.46875 0 -0.921875 0.265625q-0.4375 0.25 -0.828125 0.765625q-0.375 0.515625 -0.578125 1.25q-0.1875 0.71875 -0.1875 1.09375zm5.369812 3.53125l5.640625 -10.84375l1.125 0l-5.640625 10.84375l-1.125 0zm5.3063354 -0.171875l1.578125 -7.59375l1.296875 0l-0.265625 1.25q0.734375 -0.8125 1.296875 -1.109375q0.5625 -0.3125 1.234375 -0.3125q0.703125 0 1.171875 0.375q0.484375 0.375 0.640625 1.046875q0.578125 -0.71875 1.21875 -1.0625q0.640625 -0.359375 1.34375 -0.359375q0.953125 0 1.421875 0.453125q0.484375 0.4375 0.484375 1.265625q0 0.34375 -0.15625 1.15625l-1.03125 4.890625l-1.296875 0l1.046875 -5.03125q0.140625 -0.609375 0.140625 -0.875q0 -0.375 -0.234375 -0.578125q-0.234375 -0.21875 -0.671875 -0.21875q-0.578125 0 -1.1875 0.359375q-0.59375 0.34375 -0.9375 0.921875q-0.328125 0.5625 -0.578125 1.734375l-0.765625 3.6875l-1.296875 0l1.078125 -5.125q0.109375 -0.53125 0.109375 -0.75q0 -0.375 -0.234375 -0.59375q-0.234375 -0.234375 -0.609375 -0.234375q-0.546875 0 -1.15625 0.359375q-0.59375 0.34375 -0.984375 0.96875q-0.375 0.625 -0.609375 1.78125l-0.75 3.59375l-1.296875 0zm11.708801 0l3.296875 -3.859375l-1.890625 -3.734375l1.421875 0l0.65625 1.34375q0.359375 0.765625 0.640625 1.453125l2.1875 -2.796875l1.578125 0l-3.1875 3.84375l1.921875 3.75l-1.4375 0l-0.75 -1.546875q-0.25 -0.5 -0.5625 -1.21875l-2.25 2.765625l-1.625 0zm8.015625 0l1.375 -6.59375l-1.15625 0l0.203125 -1.0l1.15625 0l0.21875 -1.09375q0.171875 -0.796875 0.359375 -1.15625q0.1875 -0.359375 0.59375 -0.59375q0.40625 -0.234375 1.125 -0.234375q0.484375 0 1.421875 0.203125l-0.234375 1.140625q-0.65625 -0.171875 -1.09375 -0.171875q-0.375 0 -0.578125 0.1875q-0.203125 0.1875 -0.34375 0.890625l-0.171875 0.828125l1.453125 0l-0.21875 1.0l-1.4375 0l-1.390625 6.59375l-1.28125 0zm9.00946 -0.9375q-0.671875 0.578125 -1.296875 0.84375q-0.625 0.265625 -1.328125 0.265625q-1.046875 0 -1.703125 -0.609375q-0.640625 -0.625 -0.640625 -1.59375q0 -0.640625 0.28125 -1.125q0.296875 -0.5 0.78125 -0.796875q0.484375 -0.296875 1.171875 -0.421875q0.4375 -0.078125 1.65625 -0.125q1.21875 -0.0625 1.75 -0.265625q0.15625 -0.53125 0.15625 -0.875q0 -0.453125 -0.328125 -0.71875q-0.453125 -0.359375 -1.328125 -0.359375q-0.8125 0 -1.328125 0.375q-0.515625 0.359375 -0.75 1.015625l-1.3125 -0.109375q0.40625 -1.125 1.265625 -1.71875q0.875 -0.609375 2.203125 -0.609375q1.40625 0 2.21875 0.671875q0.640625 0.5 0.640625 1.296875q0 0.609375 -0.1875 1.40625l-0.421875 1.890625q-0.203125 0.90625 -0.203125 1.46875q0 0.359375 0.171875 1.03125l-1.3125 0q-0.109375 -0.375 -0.15625 -0.9375zm0.484375 -2.90625q-0.28125 0.09375 -0.59375 0.15625q-0.296875 0.0625 -1.03125 0.125q-1.140625 0.09375 -1.609375 0.25q-0.453125 0.15625 -0.6875 0.5q-0.234375 0.328125 -0.234375 0.734375q0 0.546875 0.375 0.90625q0.375 0.34375 1.0625 0.34375q0.640625 0 1.234375 -0.34375q0.59375 -0.34375 0.9375 -0.953125q0.34375 -0.609375 0.546875 -1.71875zm7.791748 1.078125l1.296875 0.125q-0.484375 1.4375 -1.390625 2.125q-0.890625 0.6875 -2.046875 0.6875q-1.234375 0 -2.0 -0.796875q-0.765625 -0.8125 -0.765625 -2.25q0 -1.234375 0.484375 -2.4375q0.5 -1.203125 1.421875 -1.828125q0.921875 -0.625 2.09375 -0.625q1.21875 0 1.9375 0.6875q0.71875 0.6875 0.71875 1.828125l-1.265625 0.078125q-0.015625 -0.71875 -0.4375 -1.125q-0.40625 -0.40625 -1.078125 -0.40625q-0.78125 0 -1.359375 0.5q-0.5625 0.484375 -0.890625 1.5q-0.328125 1.0 -0.328125 1.921875q0 0.984375 0.421875 1.46875q0.4375 0.484375 1.078125 0.484375q0.625 0 1.203125 -0.484375q0.578125 -0.484375 0.90625 -1.453125zm5.109375 1.71875l-0.21875 1.046875q-0.46875 0.125 -0.90625 0.125q-0.765625 0 -1.21875 -0.375q-0.34375 -0.28125 -0.34375 -0.78125q0 -0.25 0.1875 -1.15625l0.921875 -4.40625l-1.03125 0l0.203125 -1.0l1.03125 0l0.390625 -1.875l1.484375 -0.890625l-0.578125 2.765625l1.265625 0l-0.203125 1.0l-1.265625 0l-0.890625 4.203125q-0.15625 0.796875 -0.15625 0.953125q0 0.234375 0.125 0.359375q0.140625 0.109375 0.4375 0.109375q0.421875 0 0.765625 -0.078125zm1.2750854 -1.84375q0 -2.21875 1.3125 -3.671875q1.078125 -1.203125 2.828125 -1.203125q1.375 0 2.21875 0.859375q0.84375 0.859375 0.84375 2.3125q0 1.3125 -0.53125 2.4375q-0.53125 1.125 -1.515625 1.734375q-0.96875 0.59375 -2.046875 0.59375q-0.890625 0 -1.625 -0.375q-0.71875 -0.390625 -1.109375 -1.078125q-0.375 -0.6875 -0.375 -1.609375zm1.296875 -0.125q0 1.078125 0.515625 1.640625q0.515625 0.546875 1.296875 0.546875q0.421875 0 0.828125 -0.171875q0.40625 -0.171875 0.75 -0.515625q0.359375 -0.34375 0.609375 -0.78125q0.25 -0.4375 0.390625 -0.9375q0.234375 -0.71875 0.234375 -1.359375q0 -1.03125 -0.53125 -1.59375q-0.515625 -0.578125 -1.296875 -0.578125q-0.609375 0 -1.109375 0.296875q-0.5 0.28125 -0.90625 0.84375q-0.40625 0.546875 -0.59375 1.296875q-0.1875 0.734375 -0.1875 1.3125zm6.619873 3.015625l1.59375 -7.59375l1.140625 0l-0.328125 1.546875q0.59375 -0.875 1.15625 -1.296875q0.5625 -0.421875 1.15625 -0.421875q0.375 0 0.9375 0.265625l-0.515625 1.203125q-0.34375 -0.234375 -0.75 -0.234375q-0.671875 0 -1.390625 0.765625q-0.71875 0.75 -1.125 2.71875l-0.640625 3.046875l-1.234375 0zm6.7244263 -9.03125l0.3125 -1.453125l1.28125 0l-0.3125 1.453125l-1.28125 0zm-1.890625 9.03125l1.59375 -7.59375l1.296875 0l-1.59375 7.59375l-1.296875 0zm8.4279785 -0.9375q-0.671875 0.578125 -1.296875 0.84375q-0.625 0.265625 -1.328125 0.265625q-1.046875 0 -1.703125 -0.609375q-0.640625 -0.625 -0.640625 -1.59375q0 -0.640625 0.28125 -1.125q0.296875 -0.5 0.78125 -0.796875q0.484375 -0.296875 1.171875 -0.421875q0.4375 -0.078125 1.65625 -0.125q1.21875 -0.0625 1.75 -0.265625q0.15625 -0.53125 0.15625 -0.875q0 -0.453125 -0.328125 -0.71875q-0.453125 -0.359375 -1.328125 -0.359375q-0.8125 0 -1.328125 0.375q-0.515625 0.359375 -0.75 1.015625l-1.3125 -0.109375q0.40625 -1.125 1.265625 -1.71875q0.875 -0.609375 2.203125 -0.609375q1.40625 0 2.21875 0.671875q0.640625 0.5 0.640625 1.296875q0 0.609375 -0.1875 1.40625l-0.421875 1.890625q-0.203125 0.90625 -0.203125 1.46875q0 0.359375 0.171875 1.03125l-1.3125 0q-0.109375 -0.375 -0.15625 -0.9375zm0.484375 -2.90625q-0.28125 0.09375 -0.59375 0.15625q-0.296875 0.0625 -1.03125 0.125q-1.140625 0.09375 -1.609375 0.25q-0.453125 0.15625 -0.6875 0.5q-0.234375 0.328125 -0.234375 0.734375q0 0.546875 0.375 0.90625q0.375 0.34375 1.0625 0.34375q0.640625 0 1.234375 -0.34375q0.59375 -0.34375 0.9375 -0.953125q0.34375 -0.609375 0.546875 -1.71875zm2.447998 3.84375l2.1875 -10.484375l1.296875 0l-2.1875 10.484375l-1.296875 0zm2.1156006 0.171875l5.640625 -10.84375l1.125 0l-5.640625 10.84375l-1.125 0zm5.3062744 -0.171875l2.1875 -10.484375l1.296875 0l-0.78125 3.75q0.625 -0.578125 1.125 -0.796875q0.5 -0.234375 1.046875 -0.234375q1.0625 0 1.765625 0.796875q0.71875 0.78125 0.71875 2.296875q0 1.015625 -0.296875 1.859375q-0.28125 0.828125 -0.703125 1.40625q-0.421875 0.5625 -0.875 0.90625q-0.4375 0.328125 -0.921875 0.5q-0.46875 0.171875 -0.90625 0.171875q-0.75 0 -1.328125 -0.390625q-0.5625 -0.40625 -0.890625 -1.21875l-0.296875 1.4375l-1.140625 0zm1.921875 -3.125l-0.015625 0.25q0 0.96875 0.46875 1.484375q0.46875 0.5 1.15625 0.5q0.6875 0 1.25 -0.46875q0.578125 -0.484375 0.9375 -1.484375q0.359375 -1.015625 0.359375 -1.859375q0 -0.96875 -0.46875 -1.5q-0.453125 -0.53125 -1.125 -0.53125q-0.703125 0 -1.296875 0.546875q-0.578125 0.546875 -0.96875 1.671875q-0.296875 0.828125 -0.296875 1.390625zm6.135498 3.125l2.1875 -10.484375l1.296875 0l-2.1875 10.484375l-1.296875 0zm3.5843506 -2.890625q0 -2.21875 1.3125 -3.671875q1.078125 -1.203125 2.828125 -1.203125q1.375 0 2.21875 0.859375q0.84375 0.859375 0.84375 2.3125q0 1.3125 -0.53125 2.4375q-0.53125 1.125 -1.515625 1.734375q-0.96875 0.59375 -2.046875 0.59375q-0.890625 0 -1.625 -0.375q-0.71875 -0.390625 -1.109375 -1.078125q-0.375 -0.6875 -0.375 -1.609375zm1.296875 -0.125q0 1.078125 0.515625 1.640625q0.515625 0.546875 1.296875 0.546875q0.421875 0 0.828125 -0.171875q0.40625 -0.171875 0.75 -0.515625q0.359375 -0.34375 0.609375 -0.78125q0.25 -0.4375 0.390625 -0.9375q0.234375 -0.71875 0.234375 -1.359375q0 -1.03125 -0.53125 -1.59375q-0.515625 -0.578125 -1.296875 -0.578125q-0.609375 0 -1.109375 0.296875q-0.5 0.28125 -0.90625 0.84375q-0.40625 0.546875 -0.59375 1.296875q-0.1875 0.734375 -0.1875 1.3125zm6.619873 3.015625l2.1875 -10.484375l1.296875 0l-0.78125 3.75q0.625 -0.578125 1.125 -0.796875q0.5 -0.234375 1.046875 -0.234375q1.0625 0 1.765625 0.796875q0.71875 0.78125 0.71875 2.296875q0 1.015625 -0.296875 1.859375q-0.28125 0.828125 -0.703125 1.40625q-0.421875 0.5625 -0.875 0.90625q-0.4375 0.328125 -0.921875 0.5q-0.46875 0.171875 -0.90625 0.171875q-0.75 0 -1.328125 -0.390625q-0.5625 -0.40625 -0.890625 -1.21875l-0.296875 1.4375l-1.140625 0zm1.921875 -3.125l-0.015625 0.25q0 0.96875 0.46875 1.484375q0.46875 0.5 1.15625 0.5q0.6875 0 1.25 -0.46875q0.578125 -0.484375 0.9375 -1.484375q0.359375 -1.015625 0.359375 -1.859375q0 -0.96875 -0.46875 -1.5q-0.453125 -0.53125 -1.125 -0.53125q-0.703125 0 -1.296875 0.546875q-0.578125 0.546875 -0.96875 1.671875q-0.296875 0.828125 -0.296875 1.390625zm4.994873 3.296875l5.640625 -10.84375l1.125 0l-5.640625 10.84375l-1.125 0zm5.3062744 -0.171875l1.578125 -7.59375l1.296875 0l-0.265625 1.25q0.734375 -0.8125 1.296875 -1.109375q0.5625 -0.3125 1.234375 -0.3125q0.703125 0 1.171875 0.375q0.484375 0.375 0.640625 1.046875q0.578125 -0.71875 1.21875 -1.0625q0.640625 -0.359375 1.34375 -0.359375q0.953125 0 1.421875 0.453125q0.484375 0.4375 0.484375 1.265625q0 0.34375 -0.15625 1.15625l-1.03125 4.890625l-1.296875 0l1.046875 -5.03125q0.140625 -0.609375 0.140625 -0.875q0 -0.375 -0.234375 -0.578125q-0.234375 -0.21875 -0.671875 -0.21875q-0.578125 0 -1.1875 0.359375q-0.59375 0.34375 -0.9375 0.921875q-0.328125 0.5625 -0.578125 1.734375l-0.765625 3.6875l-1.296875 0l1.078125 -5.125q0.109375 -0.53125 0.109375 -0.75q0 -0.375 -0.234375 -0.59375q-0.234375 -0.234375 -0.609375 -0.234375q-0.546875 0 -1.15625 0.359375q-0.59375 0.34375 -0.984375 0.96875q-0.375 0.625 -0.609375 1.78125l-0.75 3.59375l-1.296875 0zm17.333801 -0.9375q-0.671875 0.578125 -1.296875 0.84375q-0.625 0.265625 -1.328125 0.265625q-1.046875 0 -1.703125 -0.609375q-0.640625 -0.625 -0.640625 -1.59375q0 -0.640625 0.28125 -1.125q0.296875 -0.5 0.78125 -0.796875q0.484375 -0.296875 1.171875 -0.421875q0.4375 -0.078125 1.65625 -0.125q1.21875 -0.0625 1.75 -0.265625q0.15625 -0.53125 0.15625 -0.875q0 -0.453125 -0.328125 -0.71875q-0.453125 -0.359375 -1.328125 -0.359375q-0.8125 0 -1.328125 0.375q-0.515625 0.359375 -0.75 1.015625l-1.3125 -0.109375q0.40625 -1.125 1.265625 -1.71875q0.875 -0.609375 2.203125 -0.609375q1.40625 0 2.21875 0.671875q0.640625 0.5 0.640625 1.296875q0 0.609375 -0.1875 1.40625l-0.421875 1.890625q-0.203125 0.90625 -0.203125 1.46875q0 0.359375 0.171875 1.03125l-1.3125 0q-0.109375 -0.375 -0.15625 -0.9375zm0.484375 -2.90625q-0.28125 0.09375 -0.59375 0.15625q-0.296875 0.0625 -1.03125 0.125q-1.140625 0.09375 -1.609375 0.25q-0.453125 0.15625 -0.6875 0.5q-0.234375 0.328125 -0.234375 0.734375q0 0.546875 0.375 0.90625q0.375 0.34375 1.0625 0.34375q0.640625 0 1.234375 -0.34375q0.59375 -0.34375 0.9375 -0.953125q0.34375 -0.609375 0.546875 -1.71875zm2.666687 1.25l1.296875 -0.078125q0 0.546875 0.171875 0.953125q0.171875 0.390625 0.625 0.640625q0.46875 0.25 1.078125 0.25q0.859375 0 1.28125 -0.34375q0.4375 -0.34375 0.4375 -0.8125q0 -0.328125 -0.25 -0.640625q-0.265625 -0.296875 -1.296875 -0.734375q-1.03125 -0.4375 -1.3125 -0.625q-0.484375 -0.28125 -0.734375 -0.671875q-0.234375 -0.40625 -0.234375 -0.921875q0 -0.90625 0.71875 -1.546875q0.71875 -0.640625 2.0 -0.640625q1.4375 0 2.1875 0.65625q0.75 0.65625 0.765625 1.734375l-1.265625 0.09375q-0.03125 -0.6875 -0.484375 -1.078125q-0.453125 -0.40625 -1.296875 -0.40625q-0.671875 0 -1.046875 0.3125q-0.359375 0.296875 -0.359375 0.65625q0 0.359375 0.3125 0.625q0.21875 0.1875 1.109375 0.578125q1.484375 0.640625 1.875 1.015625q0.625 0.59375 0.625 1.453125q0 0.5625 -0.359375 1.109375q-0.34375 0.53125 -1.0625 0.859375q-0.703125 0.328125 -1.671875 0.328125q-1.3125 0 -2.234375 -0.65625q-0.921875 -0.640625 -0.875 -2.109375zm10.234375 1.546875l-0.21875 1.046875q-0.46875 0.125 -0.90625 0.125q-0.765625 0 -1.21875 -0.375q-0.34375 -0.28125 -0.34375 -0.78125q0 -0.25 0.1875 -1.15625l0.921875 -4.40625l-1.03125 0l0.203125 -1.0l1.03125 0l0.390625 -1.875l1.484375 -0.890625l-0.578125 2.765625l1.265625 0l-0.203125 1.0l-1.265625 0l-0.890625 4.203125q-0.15625 0.796875 -0.15625 0.953125q0 0.234375 0.125 0.359375q0.140625 0.109375 0.4375 0.109375q0.421875 0 0.765625 -0.078125zm6.6188965 -1.53125l1.265625 0.125q-0.265625 0.9375 -1.25 1.78125q-0.96875 0.84375 -2.328125 0.84375q-0.84375 0 -1.546875 -0.390625q-0.703125 -0.390625 -1.078125 -1.125q-0.359375 -0.75 -0.359375 -1.703125q0 -1.25 0.5625 -2.421875q0.578125 -1.171875 1.5 -1.734375q0.921875 -0.5625 1.984375 -0.5625q1.359375 0 2.171875 0.84375q0.8125 0.84375 0.8125 2.296875q0 0.5625 -0.109375 1.140625l-5.59375 0q-0.03125 0.234375 -0.03125 0.40625q0 1.0625 0.484375 1.625q0.5 0.5625 1.203125 0.5625q0.671875 0 1.3125 -0.4375q0.640625 -0.4375 1.0 -1.25zm-3.765625 -1.890625l4.265625 0q0.015625 -0.203125 0.015625 -0.28125q0 -0.96875 -0.484375 -1.484375q-0.484375 -0.53125 -1.25 -0.53125q-0.84375 0 -1.53125 0.578125q-0.671875 0.5625 -1.015625 1.71875zm6.338623 4.46875l1.59375 -7.59375l1.140625 0l-0.328125 1.546875q0.59375 -0.875 1.15625 -1.296875q0.5625 -0.421875 1.15625 -0.421875q0.375 0 0.9375 0.265625l-0.515625 1.203125q-0.34375 -0.234375 -0.75 -0.234375q-0.671875 0 -1.390625 0.765625q-0.71875 0.75 -1.125 2.71875l-0.640625 3.046875l-1.234375 0zm3.6462402 0.171875l5.640625 -10.84375l1.125 0l-5.640625 10.84375l-1.125 0zm5.2126465 -0.171875l2.1875 -10.484375l1.296875 0l-2.1875 10.484375l-1.296875 0zm5.1936035 -9.03125l0.3125 -1.453125l1.28125 0l-0.3125 1.453125l-1.28125 0zm-1.890625 9.03125l1.59375 -7.59375l1.296875 0l-1.59375 7.59375l-1.296875 0zm3.2406006 0.6875l1.296875 0.125q-0.015625 0.4375 0.109375 0.65625q0.125 0.234375 0.390625 0.34375q0.34375 0.15625 0.90625 0.15625q1.171875 0 1.6875 -0.609375q0.34375 -0.40625 0.625 -1.765625l0.125 -0.609375q-1.0 1.015625 -2.140625 1.015625q-1.15625 0 -1.9375 -0.84375q-0.765625 -0.859375 -0.765625 -2.40625q0 -1.28125 0.609375 -2.34375q0.609375 -1.078125 1.453125 -1.625q0.84375 -0.546875 1.734375 -0.546875q1.5 0 2.3125 1.40625l0.25 -1.234375l1.1875 0l-1.53125 7.328125q-0.25 1.203125 -0.65625 1.875q-0.40625 0.6875 -1.140625 1.0625q-0.71875 0.375 -1.671875 0.375q-0.90625 0 -1.578125 -0.25q-0.65625 -0.234375 -0.984375 -0.6875q-0.328125 -0.453125 -0.328125 -1.03125q0 -0.1875 0.046875 -0.390625zm1.609375 -4.046875q0 0.78125 0.15625 1.171875q0.203125 0.546875 0.59375 0.84375q0.40625 0.28125 0.890625 0.28125q0.640625 0 1.265625 -0.4375q0.640625 -0.453125 1.03125 -1.390625q0.390625 -0.9375 0.390625 -1.796875q0 -0.9375 -0.53125 -1.484375q-0.515625 -0.5625 -1.28125 -0.5625q-0.46875 0 -0.921875 0.265625q-0.4375 0.25 -0.828125 0.765625q-0.375 0.515625 -0.578125 1.25q-0.1875 0.71875 -0.1875 1.09375zm6.604248 3.359375l2.1875 -10.484375l1.296875 0l-0.828125 4.015625q0.71875 -0.6875 1.34375 -0.984375q0.625 -0.3125 1.28125 -0.3125q0.9375 0 1.453125 0.5q0.53125 0.484375 0.53125 1.296875q0 0.40625 -0.234375 1.484375l-0.9375 4.484375l-1.296875 0l0.96875 -4.59375q0.21875 -1.015625 0.21875 -1.265625q0 -0.375 -0.265625 -0.609375q-0.25 -0.234375 -0.75 -0.234375q-0.6875 0 -1.328125 0.375q-0.640625 0.359375 -1.0 1.0q-0.359375 0.640625 -0.65625 2.0625l-0.6875 3.265625l-1.296875 0zm11.182373 -1.046875l-0.21875 1.046875q-0.46875 0.125 -0.90625 0.125q-0.765625 0 -1.21875 -0.375q-0.34375 -0.28125 -0.34375 -0.78125q0 -0.25 0.1875 -1.15625l0.921875 -4.40625l-1.03125 0l0.203125 -1.0l1.03125 0l0.390625 -1.875l1.484375 -0.890625l-0.578125 2.765625l1.265625 0l-0.203125 1.0l-1.265625 0l-0.890625 4.203125q-0.15625 0.796875 -0.15625 0.953125q0 0.234375 0.125 0.359375q0.140625 0.109375 0.4375 0.109375q0.421875 0 0.765625 -0.078125zm6.2906494 -1.71875l1.296875 0.125q-0.484375 1.4375 -1.390625 2.125q-0.890625 0.6875 -2.046875 0.6875q-1.234375 0 -2.0 -0.796875q-0.765625 -0.8125 -0.765625 -2.25q0 -1.234375 0.484375 -2.4375q0.5 -1.203125 1.421875 -1.828125q0.921875 -0.625 2.09375 -0.625q1.21875 0 1.9375 0.6875q0.71875 0.6875 0.71875 1.828125l-1.265625 0.078125q-0.015625 -0.71875 -0.4375 -1.125q-0.40625 -0.40625 -1.078125 -0.40625q-0.78125 0 -1.359375 0.5q-0.5625 0.484375 -0.890625 1.5q-0.328125 1.0 -0.328125 1.921875q0 0.984375 0.421875 1.46875q0.4375 0.484375 1.078125 0.484375q0.625 0 1.203125 -0.484375q0.578125 -0.484375 0.90625 -1.453125zm2.3125 -0.125q0 -2.21875 1.3125 -3.671875q1.078125 -1.203125 2.828125 -1.203125q1.375 0 2.21875 0.859375q0.84375 0.859375 0.84375 2.3125q0 1.3125 -0.53125 2.4375q-0.53125 1.125 -1.515625 1.734375q-0.96875 0.59375 -2.046875 0.59375q-0.890625 0 -1.625 -0.375q-0.71875 -0.390625 -1.109375 -1.078125q-0.375 -0.6875 -0.375 -1.609375zm1.296875 -0.125q0 1.078125 0.515625 1.640625q0.515625 0.546875 1.296875 0.546875q0.421875 0 0.828125 -0.171875q0.40625 -0.171875 0.75 -0.515625q0.359375 -0.34375 0.609375 -0.78125q0.25 -0.4375 0.390625 -0.9375q0.234375 -0.71875 0.234375 -1.359375q0 -1.03125 -0.53125 -1.59375q-0.515625 -0.578125 -1.296875 -0.578125q-0.609375 0 -1.109375 0.296875q-0.5 0.28125 -0.90625 0.84375q-0.40625 0.546875 -0.59375 1.296875q-0.1875 0.734375 -0.1875 1.3125zm6.619873 3.015625l1.59375 -7.59375l1.171875 0l-0.28125 1.3125q0.765625 -0.78125 1.421875 -1.125q0.671875 -0.359375 1.375 -0.359375q0.921875 0 1.4375 0.5q0.53125 0.5 0.53125 1.328125q0 0.421875 -0.1875 1.34375l-0.96875 4.59375l-1.296875 0l1.015625 -4.8125q0.15625 -0.703125 0.15625 -1.046875q0 -0.375 -0.265625 -0.609375q-0.265625 -0.234375 -0.75 -0.234375q-1.0 0 -1.78125 0.71875q-0.765625 0.703125 -1.140625 2.453125l-0.734375 3.53125l-1.296875 0zm13.729248 -2.578125l1.265625 0.125q-0.265625 0.9375 -1.25 1.78125q-0.96875 0.84375 -2.328125 0.84375q-0.84375 0 -1.546875 -0.390625q-0.703125 -0.390625 -1.078125 -1.125q-0.359375 -0.75 -0.359375 -1.703125q0 -1.25 0.5625 -2.421875q0.578125 -1.171875 1.5 -1.734375q0.921875 -0.5625 1.984375 -0.5625q1.359375 0 2.171875 0.84375q0.8125 0.84375 0.8125 2.296875q0 0.5625 -0.109375 1.140625l-5.59375 0q-0.03125 0.234375 -0.03125 0.40625q0 1.0625 0.484375 1.625q0.5 0.5625 1.203125 0.5625q0.671875 0 1.3125 -0.4375q0.640625 -0.4375 1.0 -1.25zm-3.765625 -1.890625l4.265625 0q0.015625 -0.203125 0.015625 -0.28125q0 -0.96875 -0.484375 -1.484375q-0.484375 -0.53125 -1.25 -0.53125q-0.84375 0 -1.53125 0.578125q-0.671875 0.5625 -1.015625 1.71875zm6.463623 1.875l1.296875 -0.078125q0 0.546875 0.171875 0.953125q0.171875 0.390625 0.625 0.640625q0.46875 0.25 1.078125 0.25q0.859375 0 1.28125 -0.34375q0.4375 -0.34375 0.4375 -0.8125q0 -0.328125 -0.25 -0.640625q-0.265625 -0.296875 -1.296875 -0.734375q-1.03125 -0.4375 -1.3125 -0.625q-0.484375 -0.28125 -0.734375 -0.671875q-0.234375 -0.40625 -0.234375 -0.921875q0 -0.90625 0.71875 -1.546875q0.71875 -0.640625 2.0 -0.640625q1.4375 0 2.1875 0.65625q0.75 0.65625 0.765625 1.734375l-1.265625 0.09375q-0.03125 -0.6875 -0.484375 -1.078125q-0.453125 -0.40625 -1.296875 -0.40625q-0.671875 0 -1.046875 0.3125q-0.359375 0.296875 -0.359375 0.65625q0 0.359375 0.3125 0.625q0.21875 0.1875 1.109375 0.578125q1.484375 0.640625 1.875 1.015625q0.625 0.59375 0.625 1.453125q0 0.5625 -0.359375 1.109375q-0.34375 0.53125 -1.0625 0.859375q-0.703125 0.328125 -1.671875 0.328125q-1.3125 0 -2.234375 -0.65625q-0.921875 -0.640625 -0.875 -2.109375zm7.5625 2.59375l0.3125 -1.46875l1.46875 0l-0.328125 1.46875l-1.453125 0zm3.8376465 -2.59375l1.296875 -0.078125q0 0.546875 0.171875 0.953125q0.171875 0.390625 0.625 0.640625q0.46875 0.25 1.078125 0.25q0.859375 0 1.28125 -0.34375q0.4375 -0.34375 0.4375 -0.8125q0 -0.328125 -0.25 -0.640625q-0.265625 -0.296875 -1.296875 -0.734375q-1.03125 -0.4375 -1.3125 -0.625q-0.484375 -0.28125 -0.734375 -0.671875q-0.234375 -0.40625 -0.234375 -0.921875q0 -0.90625 0.71875 -1.546875q0.71875 -0.640625 2.0 -0.640625q1.4375 0 2.1875 0.65625q0.75 0.65625 0.765625 1.734375l-1.265625 0.09375q-0.03125 -0.6875 -0.484375 -1.078125q-0.453125 -0.40625 -1.296875 -0.40625q-0.671875 0 -1.046875 0.3125q-0.359375 0.296875 -0.359375 0.65625q0 0.359375 0.3125 0.625q0.21875 0.1875 1.109375 0.578125q1.484375 0.640625 1.875 1.015625q0.625 0.59375 0.625 1.453125q0 0.5625 -0.359375 1.109375q-0.34375 0.53125 -1.0625 0.859375q-0.703125 0.328125 -1.671875 0.328125q-1.3125 0 -2.234375 -0.65625q-0.921875 -0.640625 -0.875 -2.109375zm9.125 2.59375l-1.25 -7.59375l1.265625 0l0.640625 4.1875q0.109375 0.671875 0.265625 2.234375q0.375 -0.8125 0.953125 -1.859375l2.546875 -4.5625l1.359375 0l-4.34375 7.59375l-1.4375 0zm5.34375 0.6875l1.296875 0.125q-0.015625 0.4375 0.109375 0.65625q0.125 0.234375 0.390625 0.34375q0.34375 0.15625 0.90625 0.15625q1.171875 0 1.6875 -0.609375q0.34375 -0.40625 0.625 -1.765625l0.125 -0.609375q-1.0 1.015625 -2.140625 1.015625q-1.15625 0 -1.9375 -0.84375q-0.765625 -0.859375 -0.765625 -2.40625q0 -1.28125 0.609375 -2.34375q0.609375 -1.078125 1.453125 -1.625q0.84375 -0.546875 1.734375 -0.546875q1.5 0 2.3125 1.40625l0.25 -1.234375l1.1875 0l-1.53125 7.328125q-0.25 1.203125 -0.65625 1.875q-0.40625 0.6875 -1.140625 1.0625q-0.71875 0.375 -1.671875 0.375q-0.90625 0 -1.578125 -0.25q-0.65625 -0.234375 -0.984375 -0.6875q-0.328125 -0.453125 -0.328125 -1.03125q0 -0.1875 0.046875 -0.390625zm1.609375 -4.046875q0 0.78125 0.15625 1.171875q0.203125 0.546875 0.59375 0.84375q0.40625 0.28125 0.890625 0.28125q0.640625 0 1.265625 -0.4375q0.640625 -0.453125 1.03125 -1.390625q0.390625 -0.9375 0.390625 -1.796875q0 -0.9375 -0.53125 -1.484375q-0.515625 -0.5625 -1.28125 -0.5625q-0.46875 0 -0.921875 0.265625q-0.4375 0.25 -0.828125 0.765625q-0.375 0.515625 -0.578125 1.25q-0.1875 0.71875 -0.1875 1.09375z" fill-rule="nonzero"/><path fill="#000000" fill-opacity="0.0" d="m341.59317 77.973755l189.48032 0l0 88.88188l-189.48032 0z" fill-rule="evenodd"/><path fill="#000000" d="m423.8656 142.01375l-10.75 0l6.296875 -27.265625l-11.453125 17.46875l-7.421875 0l-3.6875 -18.609375l-6.546875 28.40625l-10.1875 0l9.625 -41.6875l12.34375 0l4.5625 20.921875l14.171875 -20.921875l12.671875 0l-9.625 41.6875zm22.332977 -15.984375l-8.84375 -15.453125l10.859375 0l5.015625 9.578125l9.03125 -9.578125l11.65625 0l-16.09375 15.765625l8.953125 15.671875l-10.859375 0l-5.0625 -9.6875l-9.359375 9.6875l-11.609375 0l16.3125 -15.984375zm48.318115 -25.703125l-8.140625 29.671875l-9.125 0l5.5625 -29.671875l11.703125 0zm-9.828125 41.6875l-11.3125 0l1.71875 -7.390625l11.296875 0l-1.703125 7.390625z" fill-rule="nonzero"/></g></svg>